<?xml version="1.0" encoding="UTF-8" standalone="no"?>
<svg
   xmlns:dc="http://purl.org/dc/elements/1.1/"
   xmlns:cc="http://creativecommons.org/ns#"
   xmlns:rdf="http://www.w3.org/1999/02/22-rdf-syntax-ns#"
   xmlns:svg="http://www.w3.org/2000/svg"
   xmlns="http://www.w3.org/2000/svg"
   viewBox="0 0 373.33334 136"
   height="136"
   width="373.33334"
   xml:space="preserve"
   id="svg2"
   version="1.1"><metadata
     id="metadata8"><rdf:RDF><cc:Work
         rdf:about=""><dc:format>image/svg+xml</dc:format><dc:type
           rdf:resource="http://purl.org/dc/dcmitype/StillImage" /></cc:Work></rdf:RDF></metadata><defs
     id="defs6" /><g
     transform="matrix(1.3333333,0,0,-1.3333333,0,136)"
     id="g10"><g
       transform="scale(0.1)"
       id="g12"><path
         id="path14"
         style="fill:#274688;fill-opacity:1;fill-rule:nonzero;stroke:none"
         d="m 363.984,990.316 c 35.793,10.774 72.93,16.794 110.188,19.324 17.586,2.18 35.281,-0.3 52.922,0.99 117.734,-4.45 233.015,-53.653 318.051,-135.134 1.582,-1.57 3.156,-3.168 4.605,-4.879 -14.023,10.801 -27.371,22.559 -42.098,32.461 -22.339,15.813 -46.105,29.551 -70.535,41.895 -68.293,35.117 -145.777,49.898 -222.203,49.722 -46.297,-0.121 -92.523,-7.3 -136.691,-21.148 C 297.246,949.824 223.215,903.313 166.23,841.164 136.113,809.324 110.559,773.164 90.3594,734.266 50.6484,657.625 33.5078,570.016 38.5078,484.012 42.6953,408.074 65.5391,333.176 104.883,268.078 136.98,214.535 179.766,167.387 230.109,130.453 272.707,99.25 320.68,75.4063 371.242,60.1641 437.594,39.9492 508.234,34.6953 577.02,42.9297 c 57.851,6.8437 114.539,23.8047 166.386,50.4258 47.137,24.4965 90.52,56.4995 126.856,95.3125 77.781,82.039 123.617,192.73 130.128,305.316 4.26,48.981 -1.456,98.391 -12.652,146.118 -1.746,7.238 -4.09,14.336 -5.203,21.722 18.645,-53.828 28.535,-110.937 26.365,-167.961 -0.94,-64.91 -14.482,-129.754 -40.533,-189.261 C 932.582,223.086 874.719,151.316 802.219,99.5781 761.262,70.3242 715.809,47.3594 667.887,31.9805 614.734,14.3984 558.617,6.90625 502.758,6.6875 484.617,7.48828 466.488,8.59766 448.445,10.4805 388.168,17.418 328.918,34.8125 275.133,63.0234 186.375,108.938 113.605,183.48 66.1055,271.086 33.1563,332.215 12.6172,400.082 7.10547,469.352 -2.90625,587.645 31.5195,708.754 100.953,804.906 c 64.031,88.567 158.082,154.899 263.031,185.41 z M 794.391,723.82 c 61.672,43.477 123.425,86.871 185.152,130.282 -46.105,-103.211 -92.59,-206.235 -138.766,-309.403 -15.429,-34.957 -31.632,-69.574 -46.726,-104.664 36.121,2.883 72.238,5.77 108.363,8.738 2.289,0.204 4.629,0.231 6.906,-0.257 -38.625,-5.133 -77.199,-10.731 -115.785,-16.203 -2.871,0.16 -4.265,-2.426 -5.254,-4.688 -23.386,-51.582 -46.285,-103.375 -69.64,-154.969 -8.063,-18.398 -16.68,-36.539 -24.426,-55.074 -3.16,22.383 -11.18,44.184 -24.414,62.566 -28.953,42.094 -82.309,65.497 -132.899,58.75 -16.488,-2.019 -32.461,-7.347 -47.191,-14.96 -9.793,-5.231 -18.629,-12.004 -27.828,-18.196 -44.449,-31.89 -89.067,-63.57 -133.68,-95.246 -5.055,-3.535 -9.754,-7.613 -15.191,-10.555 2.035,3.309 5.011,5.84 7.843,8.43 35.719,35.172 71.106,70.68 106.817,105.863 25.797,26.004 52.164,51.418 77.879,77.485 -62.352,-8.696 -124.688,-17.531 -187.012,-26.348 -13.574,-1.926 -27.164,-3.93 -40.777,-5.504 172.023,121.574 344.453,242.586 516.629,363.953 z M 692.832,588.215 c -87.891,-53.91 -175.98,-107.496 -263.91,-161.352 -9.852,-6.066 -19.918,-11.812 -29.508,-18.258 6.473,-0.097 12.899,0.793 19.359,1.243 36.172,2.75 72.321,5.855 108.508,8.59 2.723,0.324 6.004,-0.09 7.926,2.328 53.313,53.261 106.949,106.195 160.453,159.277 8.051,8.187 16.613,15.855 24.242,24.43 -9.242,-5.055 -17.832,-11.203 -27.07,-16.258 z m 846.948,113.66 c 26.3,21.457 60.46,32.324 94.25,31.848 22.41,-0.457 46.83,-5.77 62.44,-23.098 -8.44,-10.055 -16.5,-20.5 -25.66,-29.918 -11.12,9.121 -25.24,14.051 -39.52,14.906 -21.59,1.801 -43.83,-4.093 -61.32,-16.988 -26.45,-18.562 -42.57,-49.887 -44.99,-81.836 -1.1,-15.918 2.98,-32.894 14.22,-44.668 11.4,-12.18 28.39,-17.516 44.71,-17.898 22.07,-0.891 43.68,6.613 62.35,17.968 2.83,-9.082 5.26,-18.304 7.43,-27.546 1.17,-4.079 -3.8,-5.5 -6.24,-7.614 -28.58,-18.129 -64.08,-24.172 -97.3,-18.726 -20.78,3.742 -41.36,13.66 -54.01,31.082 -13.3,17.57 -17.02,40.617 -15.02,62.144 4.05,42.489 25.09,83.692 58.66,110.344 z m 957.71,31.484 c 26.13,1.965 53.92,-2.738 75.19,-18.929 18.78,-14.168 29.32,-37.418 30.2,-60.696 1.14,-30.726 -8.39,-61.605 -25.54,-87.019 -26.67,-40.203 -72.41,-67.797 -120.87,-70.156 -24.36,-1.313 -50.08,3.32 -70.07,18.086 -18.97,13.468 -29.82,36.269 -31.27,59.195 -1.96,28.926 6.57,58.027 21.19,82.836 25.33,42.664 71.38,73.027 121.17,76.683 z m -10.72,-38.343 c -30.84,-3.981 -57.81,-24.532 -73.26,-51.047 -11.82,-21.098 -18.48,-46.707 -11.61,-70.512 5.39,-18.949 22,-33.73 41.21,-37.676 17.16,-3.535 35.21,-1 51.47,5.282 23.92,9.933 43.13,29.687 54.07,52.992 8.68,19.144 13.56,41.199 7.79,61.89 -3.83,14.821 -14.53,27.743 -28.49,34.086 -12.89,5.61 -27.32,6.949 -41.18,4.985 z m -1196.9,34.578 c 23.03,0.73 46.06,1.719 69.13,1.449 16.59,-0.395 34.61,-2.223 48,-13.074 8.78,-6.801 13.07,-18.102 12.77,-29.02 -0.47,-20.855 -10.64,-41.121 -26.69,-54.383 -6.2,-5.57 -13.97,-8.781 -20.99,-13.117 9.36,-3.281 19.09,-8.25 23.87,-17.41 7,-12.234 5.67,-27.328 1.67,-40.348 -5.5,-19.781 -18.52,-37.246 -35.94,-48.097 -18.23,-11.219 -39.71,-16.34 -60.97,-16.856 -22.54,-0.215 -45.1,0.426 -67.63,1.289 -0.27,3.743 1,7.317 1.86,10.895 11.48,45.898 22.92,91.816 34.39,137.715 6.95,26.965 13.02,54.156 20.53,80.957 z m 30.86,-37.367 c -3.51,-12.981 -6.48,-26.082 -9.8,-39.086 -1.54,-6.301 -3.61,-12.508 -4.31,-18.969 16.08,0.527 33.26,-2.563 48.26,4.766 10.45,4.636 17.46,14.863 20.42,25.648 1.32,6.07 1.65,13.008 -1.98,18.359 -4.5,6.34 -12.51,8.996 -19.91,9.875 -10.87,0.993 -21.82,0.301 -32.68,-0.593 z m -23.49,-93.321 c -4.72,-20.285 -10.17,-40.418 -14.74,-60.726 15.64,-1.91 31.91,-3.211 47.27,1.164 12.53,3.32 23.21,13.086 27.46,25.363 2.91,7.332 4.25,16.395 -0.32,23.344 -5.5,7.601 -15.43,9.836 -24.24,10.625 -11.81,0.539 -23.63,0.172 -35.43,0.23 z m 487.33,130.711 c 13.03,0.289 26.07,0.274 39.11,0.043 3.77,-0.406 3.86,-5.445 5.68,-8.074 13.27,-27.668 26.57,-55.332 39.98,-82.918 2.6,-5.324 4.67,-10.973 8.18,-15.797 33.12,35.078 66.36,70.035 99.55,105.012 1.9,2.332 5.16,1.722 7.84,1.914 10.57,-0.082 21.15,0.187 31.73,-0.121 -5.95,-27.953 -13.78,-55.496 -20.31,-83.309 -12.29,-48.777 -24.32,-97.617 -36.6,-146.394 -13.5,0.312 -27.07,-0.61 -40.5,0.5 3.57,10.312 5.48,21.113 8.41,31.609 10.96,44.266 22.15,88.473 33,132.762 -8.29,-6.68 -14.82,-15.215 -22.48,-22.571 -24.42,-25.242 -48.66,-50.632 -73,-75.953 -2.14,-3.047 -8.06,-3.797 -9.44,0.285 -10.01,20.704 -19.58,41.649 -29.67,62.309 -5.53,11.895 -11.57,23.559 -16.61,35.66 -0.81,-1.312 -1.55,-2.683 -1.83,-4.215 -11.16,-45.578 -22.71,-91.058 -33.99,-136.609 -1.68,-7.871 -4.34,-15.539 -5.37,-23.543 -13.57,-0.488 -27.15,-0.043 -40.71,-0.289 1.84,10.922 5.26,21.5 7.72,32.289 16.5,65.789 32.7,131.648 49.31,197.41 z m 334.65,-0.039 c 61.04,0.422 122.1,0.231 183.17,0.098 -2.1,-11.981 -5.98,-23.551 -8.59,-35.418 -14.92,-59.965 -29.92,-119.918 -44.86,-179.883 -1.3,-4.863 -1.94,-9.93 -4.1,-14.523 -13.32,0.324 -26.66,0.066 -39.99,0 14.85,59.031 29.54,118.086 44.2,177.144 1.33,4.945 2.78,9.875 3.39,14.973 -34.07,-0.016 -68.12,0.148 -102.2,-0.082 -16.17,-63.965 -31.69,-128.086 -48.1,-191.981 -13.32,0.094 -26.64,0.145 -39.95,0.012 2.36,13.129 6.32,25.906 9.27,38.914 16.03,63.555 31.62,127.219 47.76,190.746 z m 25.62,-269.34 c 20.06,2.614 41.04,2.18 60.24,-4.867 9.52,-3.699 18.83,-8.941 25.28,-17.07 -8.11,-10.012 -16.79,-19.551 -24.97,-29.481 -6.78,3.981 -13.18,8.766 -20.75,11.039 -24.9,7.789 -53.16,4.246 -75.25,-9.66 -18.25,-10.89 -32.14,-28.125 -40.82,-47.351 -6.51,-15.457 -10.83,-32.274 -9.58,-49.164 0.86,-12.047 5.43,-23.969 13.54,-32.993 8.94,-9.66 21.51,-15.484 34.43,-17.41 20.59,-3.375 41.93,0.867 60.49,10.106 4.55,1.926 8.43,5.285 13.3,6.449 1.99,-9.973 5.38,-19.629 7.2,-29.613 -3.25,-3.618 -7.86,-5.813 -11.95,-8.371 -26.08,-14.758 -57.07,-20.125 -86.68,-16.317 -24.56,2.914 -49.25,15.024 -62.47,36.567 -12.38,19.644 -14.21,43.98 -10.74,66.441 4.97,31.23 18.71,61.184 39.97,84.68 22.67,25.632 54.82,42.625 88.76,47.015 z m -825.95,-2.156 c 1.88,0.988 4.12,0.527 6.18,0.688 9.91,-0.188 19.85,0.191 29.78,-0.215 12.94,-76.899 26.73,-153.653 39.52,-230.582 -14.17,-0.121 -28.33,0.082 -42.47,-0.164 -2.24,7.875 -2.79,16.07 -4.2,24.093 -2.01,11.489 -3.63,23.032 -5.5,34.536 -30.06,0.917 -60.17,0.109 -90.24,0.417 -3.37,-0.269 -8.02,1.028 -9.9,-2.695 -10.33,-16.187 -21.37,-31.933 -31.57,-48.207 -2.13,-2.762 -3.56,-7.234 -7.26,-8.008 -12.71,-0.011 -25.46,-0.187 -38.17,0.153 6.76,12.058 15.23,23.097 22.62,34.777 41.09,60.98 82.02,122.074 122.92,183.188 2.85,3.957 5.31,8.171 8.29,12.019 z m -50.33,-133.277 c 22.44,-0.352 44.9,-0.297 67.33,-0.028 -4.13,27.125 -8.28,54.289 -13.22,81.278 -17.92,-27.164 -35.69,-54.438 -54.11,-81.25 z m 255.97,132.367 c 16.58,1.465 33.27,1.328 49.91,1.805 17.21,0.121 34.9,0.988 51.47,-4.524 9.64,-3.051 19.1,-8.648 24.16,-17.711 6.38,-10.703 5.74,-24.035 2.49,-35.66 -3.29,-12.691 -9.67,-24.777 -19.17,-33.898 -7.46,-7.641 -16.91,-13.004 -26.53,-17.465 7.52,-3.059 15.41,-6.231 20.76,-12.653 8.64,-9.972 9.79,-24.199 7.38,-36.691 -4,-21.363 -16.14,-41.332 -34.06,-53.84 -12.4,-9.144 -27.19,-14.469 -42.21,-17.383 -17.57,-3.617 -35.59,-2.398 -53.4,-2.234 -12.57,0.395 -25.17,0.34 -37.72,1.395 18.7,76.359 38.07,152.542 56.92,228.859 z m 31.34,-36.891 c -4.8,-19.277 -10.08,-38.48 -14.2,-57.918 9.55,-0.476 19.13,-0.246 28.69,-0.191 15.25,0.121 30.87,8.414 37.29,22.641 3.86,8.343 5.9,19.226 0.03,27.148 -6.09,7.25 -16.17,9.066 -25.14,9.32 -8.9,-0.082 -17.83,-0.121 -26.67,-1 z m -23.25,-93.39 c -2.62,-9.293 -4.62,-18.739 -7.07,-28.075 -2.55,-11.066 -6.13,-21.914 -7.9,-33.148 15.83,-0.641 32.2,-3.117 47.64,1.855 10.33,3.184 19.91,9.954 24.73,19.848 4.27,8.52 7.17,19.25 2.41,28.168 -5.45,8.047 -15.74,10.539 -24.87,11.094 -11.64,0.558 -23.31,0.191 -34.94,0.258 z m 1188.29,131.597 c 11.92,0.45 23.89,0.391 35.82,-0.027 10.74,-63.246 21.84,-126.434 32.61,-189.68 2.55,-12.843 3.94,-25.918 7.16,-38.625 v -2.304 c -14.36,0.296 -28.74,-0.231 -43.09,0.296 -3.62,19.375 -5.83,39.008 -9.58,58.356 -32.55,0.742 -65.13,0.121 -97.7,0.336 -13,-18.395 -24.83,-37.649 -37.46,-56.305 -1.74,-3.078 -5.6,-2.519 -8.55,-2.656 -11,0.164 -22.02,-0.109 -33.04,0.207 5.54,10.973 13.47,20.48 19.93,30.918 44.71,66.437 89.17,133.059 133.9,199.484 z m 2.71,-54.265 c -17.94,-26.309 -35.26,-53.051 -53.03,-79.469 22.42,-0.086 44.88,-0.504 67.3,0.16 -4.26,26.379 -8.39,52.785 -12.68,79.164 -0.39,0.043 -1.19,0.106 -1.59,0.145 z m -957.82,53.152 c 13.37,0.898 26.84,0.395 40.25,0.27 -7.33,-32.106 -15.75,-63.989 -23.61,-95.973 -5.11,-22.059 -11.52,-43.832 -15.91,-66.024 16.77,15.934 32.63,32.856 49.08,49.141 35.87,36.402 71.68,72.848 107.67,109.133 1.75,1.574 3.39,3.969 6.03,3.859 11.01,0.028 22.01,0.192 33.01,-0.136 -6.21,-27.582 -13.55,-54.911 -20.23,-82.387 -8.42,-33.543 -16.71,-67.133 -25.13,-100.676 -4.09,-15.539 -7.35,-31.324 -11.94,-46.73 -13.33,0.191 -26.67,0 -40,0.121 12.92,54.062 27.07,107.836 40.04,161.879 -18,-16.391 -34.42,-34.442 -51.71,-51.563 -29.2,-29.539 -58.49,-58.969 -87.63,-88.543 -7.47,-7.086 -14.15,-15.066 -22.04,-21.609 -11.49,-0.422 -23.01,-0.149 -34.51,-0.192 1.66,11.489 5.5,22.535 7.92,33.871 16.2,65.2 32.56,130.352 48.71,195.559 z m 552.59,0.207 c 13.52,0.555 27.05,0.051 40.57,0.27 5.25,-8.821 8.86,-18.469 13.55,-27.598 12.96,-26.559 25.71,-53.219 38.64,-79.785 27.98,29.48 55.79,59.121 83.9,88.508 6.24,6.07 11.38,13.386 18.35,18.644 12.41,0.418 24.88,0.176 37.31,0.094 -6.26,-27.625 -13.59,-55.008 -20.35,-82.524 -8.47,-34.414 -17.13,-68.785 -25.68,-103.183 -4,-14.688 -6.83,-29.699 -11.46,-44.199 -13.19,0.328 -26.38,-0.094 -39.53,0.246 10.91,44.59 22.17,89.097 33.14,133.656 2.55,10.582 5.8,21.031 7.59,31.773 -32.66,-33.793 -65.1,-67.796 -97.7,-101.656 -2.06,0.188 -4.21,-0.203 -6.09,0.621 -15.68,33.317 -31.71,66.485 -47.38,99.797 -2.47,-5.019 -3.31,-10.617 -4.7,-15.996 -12.16,-49.41 -24.75,-98.715 -36.83,-148.152 -13.46,-0.246 -26.9,-0.274 -40.35,-0.094 18.77,76.574 38.01,153.055 57.02,229.578" /></g></g></svg>