<?xml version="1.0" encoding="UTF-8" standalone="no"?>
<!-- Created with Inkscape (http://www.inkscape.org/) -->

<svg
   version="1.1"
   id="svg1"
   width="284"
   height="65.333336"
   viewBox="0 0 284 65.333336"
   sodipodi:docname="b47723b0e68492e8d71b733270b5696f5418Логотип ИОС ru RGB цвет.eps"
   xmlns:inkscape="http://www.inkscape.org/namespaces/inkscape"
   xmlns:sodipodi="http://sodipodi.sourceforge.net/DTD/sodipodi-0.dtd"
   xmlns="http://www.w3.org/2000/svg"
   xmlns:svg="http://www.w3.org/2000/svg">
  <defs
     id="defs1">
    <linearGradient
       x1="87.923302"
       y1="147.459"
       x2="27.5516"
       y2="147.459"
       gradientUnits="userSpaceOnUse"
       gradientTransform="matrix(10,0,0,10,-350,-1170)"
       spreadMethod="pad"
       id="linearGradient4">
      <stop
         style="stop-opacity:1;stop-color:#56e1e7"
         offset="0"
         id="stop1" />
      <stop
         style="stop-opacity:1;stop-color:#3fa8f5"
         offset="0.296875"
         id="stop2" />
      <stop
         style="stop-opacity:1;stop-color:#4e7df1"
         offset="0.570313"
         id="stop3" />
      <stop
         style="stop-opacity:1;stop-color:#122d6f"
         offset="1"
         id="stop4" />
    </linearGradient>
    <clipPath
       clipPathUnits="userSpaceOnUse"
       id="clipPath4">
      <path
         d="m 486.84,304.586 c 0,-101.254 -82.09,-183.344 -183.348,-183.344 -101.254,0 -183.34,82.09 -183.34,183.344 0,101.258 82.086,183.344 183.34,183.344 v -83.336 c -55.23,0 -100.004,-44.778 -100.004,-100.008 0,-55.231 44.774,-100.004 100.004,-100.004 55.231,0 100.008,44.773 100.008,100.004 z"
         clip-rule="evenodd"
         id="path4" />
    </clipPath>
    <linearGradient
       x1="97.363297"
       y1="130.811"
       x2="21.817101"
       y2="128.59599"
       gradientUnits="userSpaceOnUse"
       gradientTransform="matrix(10,0,0,10,-350,-1170)"
       spreadMethod="pad"
       id="linearGradient8">
      <stop
         style="stop-opacity:1;stop-color:#56e1e7"
         offset="0"
         id="stop5" />
      <stop
         style="stop-opacity:1;stop-color:#3fa8f5"
         offset="0.296875"
         id="stop6" />
      <stop
         style="stop-opacity:1;stop-color:#4e7df1"
         offset="0.570313"
         id="stop7" />
      <stop
         style="stop-opacity:1;stop-color:#122d6f"
         offset="1"
         id="stop8" />
    </linearGradient>
    <clipPath
       clipPathUnits="userSpaceOnUse"
       id="clipPath8">
      <path
         d="M 303.488,4.5625 C 137.793,4.57031 3.47656,138.895 3.47656,304.586 v 0.008 H 86.8281 v -0.008 C 86.8281,184.93 183.832,87.9219 303.488,87.918 Z M 44.918,421.258 c 23.0156,0 41.664,-18.653 41.664,-41.66 0,-23.012 -18.6484,-41.668 -41.664,-41.668 -23.0078,0 -41.66019,18.656 -41.66019,41.668 0,23.007 18.65239,41.66 41.66019,41.66 z"
         clip-rule="evenodd"
         id="path8" />
    </clipPath>
  </defs>
  <sodipodi:namedview
     id="namedview1"
     pagecolor="#ffffff"
     bordercolor="#000000"
     borderopacity="0.25"
     inkscape:showpageshadow="2"
     inkscape:pageopacity="0.0"
     inkscape:pagecheckerboard="0"
     inkscape:deskcolor="#d1d1d1">
    <inkscape:page
       x="0"
       y="0"
       inkscape:label="1"
       id="page1"
       width="284"
       height="65.333336"
       margin="0"
       bleed="0" />
  </sodipodi:namedview>
  <g
     id="g1"
     inkscape:groupmode="layer"
     inkscape:label="1">
    <path
       id="path1"
       d="m 486.84,304.586 c 0,-101.254 -82.09,-183.344 -183.348,-183.344 -101.254,0 -183.34,82.09 -183.34,183.344 0,101.258 82.086,183.344 183.34,183.344 v -83.336 c -55.23,0 -100.004,-44.778 -100.004,-100.008 0,-55.231 44.774,-100.004 100.004,-100.004 55.231,0 100.008,44.773 100.008,100.004 h 83.34"
       style="fill:url(#linearGradient4);fill-opacity:1;fill-rule:nonzero;stroke:none"
       transform="matrix(0.13333333,0,0,-0.13333333,0,65.333333)"
       clip-path="url(#clipPath4)" />
    <path
       id="path5"
       d="M 303.488,4.5625 C 137.793,4.57031 3.47656,138.895 3.47656,304.586 v 0.008 H 86.8281 v -0.008 C 86.8281,184.93 183.832,87.9219 303.488,87.918 Z M 44.918,421.258 c 23.0156,0 41.664,-18.653 41.664,-41.66 0,-23.012 -18.6484,-41.668 -41.664,-41.668 -23.0078,0 -41.66019,18.656 -41.66019,41.668 0,23.007 18.65239,41.66 41.66019,41.66"
       style="fill:url(#linearGradient8);fill-opacity:1;fill-rule:nonzero;stroke:none"
       transform="matrix(0.13333333,0,0,-0.13333333,0,65.333333)"
       clip-path="url(#clipPath8)" />
    <path
       id="path9"
       d="m 697.633,340.516 v 93.773 c 0,5.641 -0.32,20.305 -17.238,20.305 -7.735,0 -12.891,-2.739 -18.852,-12.571 l -45.438,-74.441 c -1.128,-1.769 -1.773,-3.543 -3.062,-3.543 -1.773,0 -1.934,2.578 -1.934,5.156 l 0.645,84.106 h -21.43 v -94.742 c 0,-6.442 0.321,-19.332 16.594,-19.332 11.441,0 14.828,5.8 17.887,10.632 l 46.406,74.922 c 1.769,2.742 2.898,5.157 4.187,5.157 1.454,0 1.614,-1.93 1.614,-3.704 l -0.809,-85.718 z m 97.926,0 V 425.91 H 776.703 V 391.754 H 735.938 V 425.91 H 717.09 v -85.394 h 18.848 v 36.734 h 40.765 v -36.734 z m 62.308,0 v 70.894 h 32.067 v 14.5 h -82.981 v -14.5 h 32.067 v -70.894 z m 117.258,0 v 14.5 h -41.734 c -16.11,0 -18.368,9.023 -18.368,21.914 h 49.625 c 9.668,0 13.215,6.445 13.215,16.109 0,27.395 -16.918,33.84 -41.086,33.84 -29.004,0 -41.25,-9.668 -41.25,-43.504 0,-27.391 4.836,-42.859 32.227,-42.859 z m -60.102,50.914 c 0,14.504 5.641,20.949 21.754,20.949 11.278,0 21.59,-4.676 21.59,-15.953 0,-2.414 -0.484,-4.996 -4.187,-4.996 z m 68.438,-50.914 h 20.619 l 24.98,65.898 c 0.32,0.809 0.8,2.418 1.61,2.418 0.8,0 1.29,-1.609 1.61,-2.418 l 24.97,-65.898 h 20.63 l -33.68,79.273 c -2.41,5.801 -8.38,7.09 -13.53,7.09 -5.16,0 -11.12,-1.289 -13.53,-7.09 z m 95.179,0 h 20.63 l 24.97,65.898 c 0.32,0.809 0.8,2.418 1.61,2.418 0.81,0 1.29,-1.609 1.61,-2.418 l 24.98,-65.898 h 20.62 l -33.67,79.273 c -2.42,5.801 -8.38,7.09 -13.54,7.09 -5.15,0 -11.12,-1.289 -13.53,-7.09 z m 179.61,0 v 14.5 h -41.73 c -16.11,0 -18.37,9.023 -18.37,21.914 h 49.63 c 9.67,0 13.22,6.445 13.22,16.109 0,27.395 -16.93,33.84 -41.09,33.84 -29.01,0 -41.25,-9.668 -41.25,-43.504 0,-27.391 4.83,-42.859 32.22,-42.859 z m -60.1,50.914 c 0,14.504 5.64,20.949 21.76,20.949 11.27,0 21.59,-4.676 21.59,-15.953 0,-2.414 -0.49,-4.996 -4.19,-4.996 z m 158.67,-50.914 -36.41,38.027 c -1.29,1.285 -3.07,4.187 -3.07,5.961 0,2.738 2.58,5.476 4.03,6.926 l 32.39,34.48 h -22.4 l -27.23,-30.289 c -2.42,-2.738 -5.96,-6.766 -5.96,-11.117 0,-4.352 2.9,-7.895 4.83,-9.992 l 31.1,-33.996 z m -62.36,0 v 85.394 h -18.85 v -85.394 z m 116.61,0 v 70.894 h 32.07 v 14.5 h -82.98 v -14.5 h 32.06 v -70.894 z m 134.34,85.394 h -19.18 l -29,-65.574 -27.39,65.574 h -19.49 l 38.02,-85.07 -13.05,-27.879 h 19.17 z m 8.66,0 v -14.5 h 41.73 c 8.05,0 11.92,-4.187 11.92,-12.246 v -5.476 h -38.67 c -14.5,0 -21.27,-10.473 -21.27,-26.586 0,-17.727 6.77,-26.586 21.27,-26.586 h 43.02 c 9.67,0 14.5,4.832 14.5,14.5 v 45.761 c 0,14.5 -7.89,25.133 -24,25.133 z m 53.65,-46.726 v -19.332 c 0,-3.227 -1.61,-4.836 -4.83,-4.836 h -26.59 c -6.44,0 -9.02,4.027 -9.02,12.086 0,8.054 2.58,12.082 9.02,12.082 z m 27.03,-38.668 h 20.62 l 24.98,65.898 c 0.32,0.809 0.8,2.418 1.61,2.418 0.8,0 1.29,-1.609 1.61,-2.418 l 24.97,-65.898 h 20.63 l -33.68,79.273 c -2.42,5.801 -8.38,7.09 -13.53,7.09 -5.16,0 -11.12,-1.289 -13.54,-7.09 z m 159.95,0 c 16.76,0 21.59,10.472 21.59,26.586 0,16.113 -4.83,26.425 -21.59,26.425 h -38.51 v 32.383 h -18.85 v -70.894 c 0,-9.668 4.84,-14.5 14.5,-14.5 z m -38.51,38.507 h 30.62 c 8.05,0 9.99,-3.867 9.99,-11.921 0,-8.059 -1.94,-12.086 -9.99,-12.086 h -25.78 c -3.23,0 -4.84,1.609 -4.84,4.836 z m 152.55,-38.507 v 85.394 h -18.86 v -34.156 h -40.76 v 34.156 h -18.85 v -85.394 h 18.85 v 36.734 h 40.76 v -36.734 z m 104.69,0 h 18.85 v 85.394 h -18.85 z m -31.75,0 c 16.76,0 21.59,10.472 21.59,26.586 0,16.113 -4.83,26.425 -21.59,26.425 h -36.89 v 32.383 h -18.86 v -70.894 c 0,-9.668 4.84,-14.5 14.51,-14.5 z m -36.89,38.507 h 29 c 8.05,0 9.99,-3.867 9.99,-11.921 0,-8.059 -1.94,-12.086 -9.99,-12.086 h -24.17 c -3.22,0 -4.83,1.609 -4.83,4.836 z m 181.7,-38.507 v 14.5 h -41.73 c -16.11,0 -18.37,9.023 -18.37,21.914 h 49.63 c 9.67,0 13.21,6.445 13.21,16.109 0,27.395 -16.92,33.84 -41.09,33.84 -29,0 -41.25,-9.668 -41.25,-43.504 0,-27.391 4.84,-42.859 32.23,-42.859 z m -60.1,50.914 c 0,14.504 5.64,20.949 21.75,20.949 11.28,0 21.59,-4.676 21.59,-15.953 0,-2.414 -0.48,-4.996 -4.18,-4.996 z M 644.945,303.777 c -41.73,0 -57.843,-12.082 -57.843,-57.683 0,-45.598 16.113,-57.684 57.843,-57.684 42.055,0 58.008,12.086 58.008,57.684 0,45.601 -15.953,57.683 -58.008,57.683 z m -35.929,-57.683 c 0,32.226 8.214,40.765 35.929,40.765 27.715,0 36.094,-8.539 36.094,-40.765 0,-32.227 -8.379,-40.762 -36.094,-40.762 -27.715,0 -35.929,8.535 -35.929,40.762 z m 110.168,-56.395 h 18.851 v 66.063 c 0,3.222 1.61,4.832 4.836,4.832 h 31.258 c 3.223,0 4.832,-1.61 4.832,-4.832 v -66.063 h 18.852 v 70.895 c 0,9.672 -4.836,14.504 -14.5,14.504 h -49.629 c -9.668,0 -14.5,-4.832 -14.5,-14.504 z m 140.941,0 v 70.895 h 32.066 v 14.504 h -82.984 v -14.504 h 32.066 v -70.895 z m 125.477,0 v 73.313 c 0,12.73 -9.832,13.051 -12.411,13.051 -3.863,0 -8.214,-0.805 -11.601,-5.797 l -38.024,-55.914 c -0.644,-1.125 -1.128,-2.254 -2.257,-2.254 -1.289,0 -1.289,0.804 -1.289,2.254 l 0.804,60.746 h -18.847 v -74.282 c 0,-4.507 1.445,-12.082 12.406,-12.082 6.441,0 9.183,2.254 12.246,6.766 l 37.543,54.945 c 1.285,1.934 1.769,2.254 2.254,2.254 0.644,0 0.969,-0.48 0.969,-2.254 l -0.649,-60.746 z m 92.758,0 v 85.399 h -18.85 v -35.125 h -28.52 c -9.67,0 -11.92,4.027 -11.92,13.695 v 21.43 h -18.86 v -25.457 c 0,-16.114 5.49,-24.172 21.6,-24.172 h 37.7 v -35.77 z m 94.22,0 v 14.504 h -41.74 c -16.11,0 -18.36,9.024 -18.36,21.91 h 49.62 c 9.67,0 13.22,6.446 13.22,16.114 0,27.394 -16.92,33.836 -41.09,33.836 -29,0 -41.25,-9.665 -41.25,-43.504 0,-27.391 4.84,-42.86 32.23,-42.86 z m -60.1,50.918 c 0,14.5 5.64,20.946 21.75,20.946 11.28,0 21.59,-4.672 21.59,-15.954 0,-2.414 -0.48,-4.992 -4.19,-4.992 z m 147.22,19.977 v 14.504 h -35.77 c -29,0 -36.57,-16.758 -36.57,-42.539 0,-25.782 7.57,-42.86 36.57,-42.86 h 37.71 v 14.504 h -33.03 c -19.82,0 -21.76,12.246 -21.76,28.356 0,16.113 1.94,28.035 21.76,28.035 z m 96.8,-70.895 -36.42,38.028 c -1.29,1.289 -3.06,4.191 -3.06,5.961 0,2.738 2.58,5.476 4.03,6.929 l 32.38,34.481 h -22.39 l -27.23,-30.293 c -2.42,-2.739 -5.96,-6.766 -5.96,-11.117 0,-4.352 2.9,-7.895 4.83,-9.989 l 31.1,-34 z m -62.36,0 v 85.399 h -18.85 v -85.399 z m 153.51,0 v 73.313 c 0,12.73 -9.83,13.051 -12.41,13.051 -3.86,0 -8.22,-0.805 -11.6,-5.797 l -38.02,-55.914 c -0.65,-1.125 -1.13,-2.254 -2.26,-2.254 -1.29,0 -1.29,0.804 -1.29,2.254 l 0.81,60.746 h -18.86 v -74.282 c 0,-4.507 1.45,-12.082 12.41,-12.082 6.45,0 9.19,2.254 12.25,6.766 l 37.54,54.945 c 1.29,1.934 1.77,2.254 2.26,2.254 0.64,0 0.96,-0.48 0.96,-2.254 l -0.64,-60.746 z m 94.21,0 v 14.504 h -41.73 c -16.11,0 -18.37,9.024 -18.37,21.91 h 49.63 c 9.67,0 13.21,6.446 13.21,16.114 0,27.394 -16.92,33.836 -41.08,33.836 -29.01,0 -41.25,-9.665 -41.25,-43.504 0,-27.391 4.83,-42.86 32.22,-42.86 z m -60.1,50.918 c 0,14.5 5.64,20.946 21.76,20.946 11.27,0 21.59,-4.672 21.59,-15.954 0,-2.414 -0.49,-4.992 -4.19,-4.992 z M 682.008,38.8867 v 16.918 h -37.063 c -27.39,0 -35.929,8.8633 -35.929,39.4766 0,30.6137 8.539,39.4767 35.929,39.4767 h 35.285 v 16.914 h -45.273 c -38.672,0 -47.855,-24.168 -47.855,-56.3907 0,-32.2266 9.183,-56.3946 47.855,-56.3946 z m 98.242,0 v 73.3123 c 0,12.731 -9.832,13.051 -12.406,13.051 -3.867,0 -8.219,-0.805 -11.602,-5.801 L 718.215,63.5391 c -0.645,-1.1289 -1.125,-2.2578 -2.254,-2.2578 -1.289,0 -1.289,0.8046 -1.289,2.2578 l 0.805,60.7419 H 696.625 V 50.0039 c 0,-4.5117 1.449,-12.0859 12.406,-12.0859 6.446,0 9.184,2.2578 12.246,6.7656 l 37.543,54.9453 c 1.285,1.9371 1.77,2.2581 2.258,2.2581 0.641,0 0.965,-0.485 0.965,-2.2581 l -0.645,-60.7422 z m 86.961,70.8943 v 14.5 h -35.77 c -29,0 -36.574,-16.754 -36.574,-42.5349 0,-25.7813 7.574,-42.8594 36.574,-42.8594 h 37.704 v 14.5 h -33.032 c -19.816,0 -21.75,12.2461 -21.75,28.3594 0,16.1133 1.934,28.0349 21.75,28.0349 z m 60.703,-70.8943 v 70.8943 h 32.063 v 14.5 h -82.981 v -14.5 h 32.067 V 38.8867 Z m 117.256,0 v 14.5 h -41.73 c -16.116,0 -18.374,9.0235 -18.374,21.9141 h 49.624 c 9.67,0 13.22,6.4453 13.22,16.1094 0,27.3948 -16.92,33.8398 -41.09,33.8398 -29.004,0 -41.25,-9.668 -41.25,-43.5039 0,-27.3906 4.836,-42.8594 32.227,-42.8594 z m -60.104,50.9141 c 0,14.5042 5.641,20.9492 21.754,20.9492 11.28,0 21.59,-4.676 21.59,-15.9531 0,-2.4141 -0.48,-4.9961 -4.19,-4.9961 z m 163.344,10.6372 c 0.48,0.644 0.97,1.933 1.45,1.933 0.48,0 0.96,-0.484 0.96,-1.613 l -0.8,-61.8713 h 18.85 v 74.1173 c 0,8.379 -6.93,12.246 -14.66,12.246 -7.09,0 -11.76,-2.254 -14.5,-9.184 l -21.6,-54.3004 c -0.48,-0.8047 -1.61,-3.3828 -2.41,-3.3828 -0.81,0 -1.94,2.5781 -2.42,3.3828 l -21.59,54.3004 c -2.74,6.93 -7.41,9.184 -14.5,9.184 -7.74,0 -14.66,-3.867 -14.66,-12.246 V 38.8867 h 18.85 l -0.81,61.8713 c 0,0.484 -0.16,1.449 0.97,1.449 0.64,0 1.13,-1.289 1.29,-1.769 l 21.91,-55.4302 c 1.29,-3.3828 4.03,-7.0898 10.96,-7.0898 6.93,0 9.66,3.707 10.96,7.0898 z m 125.15,-61.5513 h 18.85 v 85.3943 h -18.85 z m -31.74,0 c 16.75,0 21.59,10.4727 21.59,26.586 0,16.1093 -4.84,26.4218 -21.59,26.4218 h -36.9 v 32.3865 h -18.85 V 53.3867 c 0,-9.6679 4.83,-14.5 14.5,-14.5 z m -36.9,38.5078 h 29 c 8.06,0 9.99,-3.8672 9.99,-11.9218 0,-8.0586 -1.93,-12.086 -9.99,-12.086 h -24.17 c -3.22,0 -4.83,1.6094 -4.83,4.836 v 19.1718"
       style="fill:#1d3149;fill-opacity:1;fill-rule:nonzero;stroke:none"
       transform="matrix(0.13333333,0,0,-0.13333333,0,65.333333)" />
  </g>
</svg>
