<?xml version="1.0" encoding="UTF-8"?>
<!DOCTYPE svg PUBLIC "-//W3C//DTD SVG 1.1//EN" "http://www.w3.org/Graphics/SVG/1.1/DTD/svg11.dtd">
<!-- Creator: CorelDRAW (Evaluation Version) -->
<svg xmlns="http://www.w3.org/2000/svg" xml:space="preserve" width="2.95274in" height="0.671339in" version="1.1" style="shape-rendering:geometricPrecision; text-rendering:geometricPrecision; image-rendering:optimizeQuality; fill-rule:evenodd; clip-rule:evenodd"
viewBox="0 0 2952.74 671.34"
 xmlns:xlink="http://www.w3.org/1999/xlink"
 xmlns:xodm="http://www.corel.com/coreldraw/odm/2003">
 <defs>
  <style type="text/css">
   <![CDATA[
    .fil0 {fill:#FEFEFE}
   ]]>
  </style>
 </defs>
 <g id="Layer_x0020_1">
  <metadata id="CorelCorpID_0Corel-Layer"/>
  <path class="fil0" d="M671.64 254.65c0,140.63 -114.01,254.65 -254.65,254.65 -140.63,0 -254.64,-114.02 -254.64,-254.65 0,-140.63 114.01,-254.65 254.64,-254.65l0 115.75c-76.71,0 -138.89,62.19 -138.89,138.9 0,76.71 62.19,138.89 138.89,138.89 76.71,0 138.9,-62.19 138.9,-138.89l115.75 0z"/>
  <path class="fil0" d="M416.98 671.34c-230.13,-0.01 -416.69,-186.57 -416.69,-416.7l0 -0.01 115.77 0 0 0.01c0,166.19 134.73,300.92 300.92,300.93l0 115.77zm-359.13 -578.74c31.96,0 57.87,25.91 57.87,57.86 0,31.96 -25.9,57.87 -57.87,57.87 -31.96,0 -57.86,-25.91 -57.86,-57.87 0,-31.96 25.91,-57.86 57.86,-57.86z"/>
  <path class="fil0" d="M964.41 204.74l0 -130.24c0,-7.83 -0.44,-28.2 -23.94,-28.2 -10.74,0 -17.9,3.8 -26.18,17.46l-63.11 103.39c-1.57,2.46 -2.46,4.92 -4.25,4.92 -2.46,0 -2.69,-3.58 -2.69,-7.16l0.9 -116.81 -29.76 0 0 131.59c0,8.95 0.44,26.85 23.05,26.85 15.89,0 20.59,-8.06 24.84,-14.77l64.45 -104.06c2.46,-3.81 4.03,-7.16 5.82,-7.16 2.02,0 2.24,2.69 2.24,5.15l-1.12 119.06 29.76 0zm136 0l0 -118.61 -26.19 0 0 47.44 -56.62 0 0 -47.44 -26.18 0 0 118.61 26.18 0 0 -51.02 56.62 0 0 51.02 26.19 0zm86.54 0l0 -98.46 44.54 0 0 -20.14 -115.25 0 0 20.14 44.54 0 0 98.46 26.18 0zm162.85 0l0 -20.14 -57.96 0c-22.38,0 -25.51,-12.53 -25.51,-30.43l68.93 0c13.43,0 18.35,-8.95 18.35,-22.38 0,-38.05 -23.5,-47 -57.07,-47 -40.28,0 -57.29,13.43 -57.29,60.42 0,38.04 6.72,59.53 44.76,59.53l65.79 0zm-83.47 -70.72c0,-20.14 7.83,-29.09 30.21,-29.09 15.67,0 29.99,6.49 29.99,22.16 0,3.35 -0.67,6.94 -5.82,6.94l-54.38 0zm95.05 70.72l28.64 0 34.69 -91.53c0.45,-1.12 1.12,-3.36 2.24,-3.36 1.12,0 1.79,2.24 2.24,3.36l34.69 91.53 28.65 0 -46.77 -110.1c-3.36,-8.06 -11.64,-9.85 -18.8,-9.85 -7.16,0 -15.44,1.79 -18.8,9.85l-46.77 110.1zm132.2 0l28.64 0 34.69 -91.53c0.45,-1.12 1.12,-3.36 2.24,-3.36 1.12,0 1.79,2.24 2.24,3.36l34.69 91.53 28.65 0 -46.77 -110.1c-3.36,-8.06 -11.64,-9.85 -18.8,-9.85 -7.16,0 -15.44,1.79 -18.8,9.85l-46.77 110.1zm249.46 0l0 -20.14 -57.96 0c-22.38,0 -25.51,-12.53 -25.51,-30.43l68.93 0c13.43,0 18.35,-8.95 18.35,-22.38 0,-38.05 -23.5,-47 -57.07,-47 -40.28,0 -57.29,13.43 -57.29,60.42 0,38.04 6.72,59.53 44.76,59.53l65.79 0zm-83.47 -70.72c0,-20.14 7.83,-29.09 30.21,-29.09 15.67,0 29.99,6.49 29.99,22.16 0,3.35 -0.67,6.94 -5.82,6.94l-54.38 0zm220.37 70.72l-50.57 -52.81c-1.79,-1.79 -4.25,-5.82 -4.25,-8.28 0,-3.8 3.58,-7.61 5.59,-9.62l44.98 -47.89 -31.11 0 -37.82 42.07c-3.36,3.8 -8.28,9.4 -8.28,15.44 0,6.04 4.03,10.96 6.71,13.87l43.19 47.22 31.56 0zm-86.61 0l0 -118.61 -26.18 0 0 118.61 26.18 0zm161.96 0l0 -98.46 44.54 0 0 -20.14 -115.25 0 0 20.14 44.54 0 0 98.46 26.18 0zm186.57 -118.61l-26.63 0 -40.28 91.08 -38.05 -91.08 -27.07 0 52.81 118.16 -18.13 38.72 26.63 0 70.72 -156.87zm12.02 0l0 20.14 57.96 0c11.19,0 16.56,5.81 16.56,17.01l0 7.61 -53.71 0c-20.14,0 -29.54,14.55 -29.54,36.93 0,24.62 9.4,36.93 29.54,36.93l59.75 0c13.43,0 20.14,-6.71 20.14,-20.14l0 -63.56c0,-20.14 -10.96,-34.91 -33.34,-34.91l-67.36 0zm74.52 64.9l0 26.85c0,4.48 -2.24,6.71 -6.71,6.71l-36.93 0c-8.95,0 -12.53,-5.59 -12.53,-16.78 0,-11.19 3.58,-16.78 12.53,-16.78l43.64 0zm37.54 53.71l28.64 0 34.69 -91.53c0.45,-1.12 1.12,-3.36 2.24,-3.36 1.12,0 1.79,2.24 2.24,3.36l34.69 91.53 28.65 0 -46.77 -110.1c-3.36,-8.06 -11.64,-9.85 -18.8,-9.85 -7.16,0 -15.44,1.79 -18.8,9.85l-46.77 110.1zm222.16 0c23.28,0 29.99,-14.55 29.99,-36.93 0,-22.38 -6.71,-36.7 -29.99,-36.7l-53.48 0 0 -44.98 -26.18 0 0 98.46c0,13.43 6.71,20.14 20.14,20.14l59.52 0zm-53.48 -53.48l42.52 0c11.19,0 13.87,5.37 13.87,16.56 0,11.19 -2.69,16.78 -13.87,16.78l-35.8 0c-4.48,0 -6.72,-2.24 -6.72,-6.71l0 -26.63zm211.87 53.48l0 -118.61 -26.19 0 0 47.44 -56.62 0 0 -47.44 -26.18 0 0 118.61 26.18 0 0 -51.02 56.62 0 0 51.02 26.19 0zm145.4 0l26.18 0 0 -118.61 -26.18 0 0 118.61zm-44.09 0c23.28,0 29.99,-14.55 29.99,-36.93 0,-22.38 -6.71,-36.7 -29.99,-36.7l-51.25 0 0 -44.98 -26.18 0 0 98.46c0,13.43 6.71,20.14 20.14,20.14l57.29 0zm-51.25 -53.48l40.28 0c11.19,0 13.87,5.37 13.87,16.56 0,11.19 -2.69,16.78 -13.87,16.78l-33.57 0c-4.48,0 -6.72,-2.24 -6.72,-6.71l0 -26.63zm252.37 53.48l0 -20.14 -57.96 0c-22.38,0 -25.51,-12.53 -25.51,-30.43l68.93 0c13.43,0 18.35,-8.95 18.35,-22.38 0,-38.05 -23.5,-47 -57.07,-47 -40.28,0 -57.29,13.43 -57.29,60.42 0,38.04 6.72,59.53 44.76,59.53l65.79 0zm-83.47 -70.72c0,-20.14 7.83,-29.09 30.21,-29.09 15.67,0 29.99,6.49 29.99,22.16 0,3.35 -0.67,6.94 -5.82,6.94l-54.38 0zm-1974.23 121.74c-57.96,0 -80.34,16.78 -80.34,80.11 0,63.33 22.38,80.12 80.34,80.12 58.41,0 80.56,-16.78 80.56,-80.12 0,-63.33 -22.15,-80.11 -80.56,-80.11zm-49.91 80.11c0,-44.76 11.41,-56.62 49.91,-56.62 38.49,0 50.13,11.86 50.13,56.62 0,44.76 -11.64,56.62 -50.13,56.62 -38.49,0 -49.91,-11.86 -49.91,-56.62zm153.01 78.33l26.18 0 0 -91.75c0,-4.48 2.24,-6.71 6.72,-6.71l43.41 0c4.48,0 6.71,2.24 6.71,6.71l0 91.75 26.19 0 0 -98.46c0,-13.43 -6.72,-20.14 -20.14,-20.14l-68.93 0c-13.43,0 -20.14,6.71 -20.14,20.14l0 98.46zm195.75 0l0 -98.46 44.54 0 0 -20.14 -115.25 0 0 20.14 44.54 0 0 98.46 26.18 0zm174.27 0l0 -101.82c0,-17.68 -13.65,-18.13 -17.23,-18.13 -5.37,0 -11.41,1.12 -16.11,8.06l-52.81 77.65c-0.9,1.57 -1.57,3.13 -3.13,3.13 -1.79,0 -1.79,-1.12 -1.79,-3.13l1.12 -84.37 -26.18 0 0 103.17c0,6.26 2.01,16.78 17.23,16.78 8.95,0 12.76,-3.13 17.01,-9.4l52.14 -76.31c1.79,-2.69 2.46,-3.13 3.13,-3.13 0.89,0 1.34,0.67 1.34,3.13l-0.9 84.37 26.19 0zm128.84 0l0 -118.61 -26.19 0 0 48.78 -39.61 0c-13.43,0 -16.56,-5.59 -16.56,-19.02l0 -29.76 -26.19 0 0 35.36c0,22.38 7.61,33.57 29.99,33.57l52.37 0 0 49.68 26.19 0zm130.85 0l0 -20.14 -57.96 0c-22.38,0 -25.51,-12.53 -25.51,-30.43l68.93 0c13.43,0 18.35,-8.95 18.35,-22.38 0,-38.05 -23.5,-47 -57.07,-47 -40.28,0 -57.29,13.43 -57.29,60.42 0,38.04 6.72,59.53 44.76,59.53l65.79 0zm-83.47 -70.72c0,-20.14 7.83,-29.09 30.21,-29.09 15.67,0 29.99,6.49 29.99,22.16 0,3.35 -0.67,6.94 -5.82,6.94l-54.38 0zm204.48 -27.75l0 -20.14 -49.68 0c-40.28,0 -50.8,23.27 -50.8,59.08 0,35.81 10.52,59.53 50.8,59.53l52.37 0 0 -20.14 -45.87 0c-27.53,0 -30.21,-17.01 -30.21,-39.39 0,-22.38 2.69,-38.94 30.21,-38.94l43.19 0zm134.44 98.46l-50.57 -52.81c-1.79,-1.79 -4.25,-5.82 -4.25,-8.28 0,-3.8 3.58,-7.61 5.59,-9.62l44.98 -47.89 -31.11 0 -37.82 42.07c-3.36,3.8 -8.28,9.4 -8.28,15.44 0,6.04 4.03,10.96 6.71,13.87l43.19 47.22 31.56 0zm-86.61 0l0 -118.61 -26.18 0 0 118.61 26.18 0zm213.21 0l0 -101.82c0,-17.68 -13.65,-18.13 -17.23,-18.13 -5.37,0 -11.41,1.12 -16.11,8.06l-52.81 77.65c-0.9,1.57 -1.57,3.13 -3.13,3.13 -1.79,0 -1.79,-1.12 -1.79,-3.13l1.12 -84.37 -26.18 0 0 103.17c0,6.26 2.01,16.78 17.23,16.78 8.95,0 12.76,-3.13 17.01,-9.4l52.14 -76.31c1.79,-2.69 2.46,-3.13 3.13,-3.13 0.89,0 1.34,0.67 1.34,3.13l-0.9 84.37 26.19 0zm130.85 0l0 -20.14 -57.96 0c-22.38,0 -25.51,-12.53 -25.51,-30.43l68.93 0c13.43,0 18.35,-8.95 18.35,-22.38 0,-38.05 -23.5,-47 -57.07,-47 -40.28,0 -57.29,13.43 -57.29,60.42 0,38.04 6.72,59.53 44.76,59.53l65.79 0zm-83.47 -70.72c0,-20.14 7.83,-29.09 30.21,-29.09 15.67,0 29.99,6.49 29.99,22.16 0,3.35 -0.67,6.94 -5.82,6.94l-54.38 0zm-1110.77 280.18l0 -23.5 -51.47 0c-38.04,0 -49.91,-12.31 -49.91,-54.83 0,-42.52 11.86,-54.83 49.91,-54.83l49.01 0 0 -23.5 -62.88 0c-53.71,0 -66.46,33.57 -66.46,78.32 0,44.76 12.76,78.33 66.46,78.33l65.35 0zm136.45 0l0 -101.82c0,-17.68 -13.65,-18.13 -17.23,-18.13 -5.37,0 -11.41,1.12 -16.11,8.06l-52.81 77.65c-0.9,1.57 -1.57,3.13 -3.13,3.13 -1.79,0 -1.79,-1.12 -1.79,-3.13l1.12 -84.37 -26.18 0 0 103.17c0,6.26 2.01,16.78 17.23,16.78 8.95,0 12.76,-3.13 17.01,-9.4l52.14 -76.31c1.79,-2.69 2.46,-3.13 3.13,-3.13 0.89,0 1.34,0.67 1.34,3.13l-0.9 84.37 26.19 0zm120.78 -98.46l0 -20.14 -49.68 0c-40.28,0 -50.8,23.27 -50.8,59.08 0,35.81 10.52,59.53 50.8,59.53l52.37 0 0 -20.14 -45.87 0c-27.53,0 -30.21,-17.01 -30.21,-39.39 0,-22.38 2.69,-38.94 30.21,-38.94l43.19 0zm84.31 98.46l0 -98.46 44.54 0 0 -20.14 -115.25 0 0 20.14 44.54 0 0 98.46 26.18 0zm162.85 0l0 -20.14 -57.96 0c-22.38,0 -25.51,-12.53 -25.51,-30.43l68.93 0c13.43,0 18.35,-8.95 18.35,-22.38 0,-38.05 -23.5,-47 -57.07,-47 -40.28,0 -57.29,13.43 -57.29,60.42 0,38.04 6.72,59.53 44.76,59.53l65.79 0zm-83.47 -70.72c0,-20.14 7.83,-29.09 30.21,-29.09 15.67,0 29.99,6.49 29.99,22.16 0,3.35 -0.67,6.94 -5.82,6.94l-54.38 0zm226.86 -14.77c0.67,-0.89 1.34,-2.69 2.01,-2.69 0.67,0 1.34,0.67 1.34,2.24l-1.12 85.93 26.18 0 0 -102.94c0,-11.64 -9.62,-17.01 -20.36,-17.01 -9.85,0 -16.34,3.13 -20.14,12.76l-29.99 75.41c-0.67,1.12 -2.24,4.7 -3.35,4.7 -1.12,0 -2.69,-3.58 -3.36,-4.7l-29.99 -75.41c-3.8,-9.63 -10.3,-12.76 -20.14,-12.76 -10.74,0 -20.36,5.37 -20.36,17.01l0 102.94 26.18 0 -1.12 -85.93c0,-0.67 -0.22,-2.02 1.34,-2.02 0.89,0 1.57,1.79 1.79,2.46l30.43 76.98c1.79,4.7 5.59,9.85 15.22,9.85 9.62,0 13.43,-5.15 15.22,-9.85l30.21 -76.98zm173.82 85.49l26.18 0 0 -118.61 -26.18 0 0 118.61zm-44.09 0c23.28,0 29.99,-14.55 29.99,-36.93 0,-22.38 -6.71,-36.7 -29.99,-36.7l-51.25 0 0 -44.98 -26.18 0 0 98.46c0,13.43 6.71,20.14 20.14,20.14l57.29 0zm-51.25 -53.48l40.28 0c11.19,0 13.87,5.37 13.87,16.56 0,11.19 -2.69,16.78 -13.87,16.78l-33.57 0c-4.48,0 -6.72,-2.24 -6.72,-6.71l0 -26.63z"/>
 </g>
</svg>
