<svg xmlns="http://www.w3.org/2000/svg" viewBox="40.81893048 151.93713012 293.29157456 76.34651812" xml:space="preserve" id="svg2" version="1.1" style="max-height: 500px" width="293.29157456" height="76.34651812"><defs id="defs6"/><g transform="matrix(1.3333333,0,0,-1.3333333,-1.189584,379.14266)" id="g8"><g transform="scale(0.1)" id="g10"><path id="path12" style="fill:#000000;fill-opacity:1;fill-rule:evenodd;stroke:none" d="M 8.92188,2843.57 H 2843.57 V 8.92188 H 8.92188 V 2843.57"/><path id="path14" style="fill:#fefefe;fill-opacity:1;fill-rule:evenodd;stroke:none" d="m 846.84,1484.59 c 0,-101.26 -82.09,-183.35 -183.348,-183.35 -101.254,0 -183.34,82.09 -183.34,183.35 0,101.25 82.086,183.34 183.34,183.34 v -83.34 c -55.23,0 -100.004,-44.77 -100.004,-100 0,-55.23 44.774,-100.01 100.004,-100.01 55.231,0 100.008,44.78 100.008,100.01 h 83.34"/><path id="path16" style="fill:#fefefe;fill-opacity:1;fill-rule:evenodd;stroke:none" d="m 663.488,1184.56 c -165.695,0.01 -300.011,134.33 -300.011,300.03 v 0 h 83.351 v 0 c 0,-119.66 97.004,-216.67 216.66,-216.67 z m -258.57,416.7 c 23.016,0 41.664,-18.65 41.664,-41.66 0,-23.01 -18.648,-41.67 -41.664,-41.67 -23.008,0 -41.66,18.66 -41.66,41.67 0,23.01 18.652,41.66 41.66,41.66"/><path id="path18" style="fill:#fefefe;fill-opacity:1;fill-rule:nonzero;stroke:none" d="m 1057.63,1520.52 v 93.77 c 0,5.64 -0.32,20.3 -17.24,20.3 -7.73,0 -12.89,-2.73 -18.85,-12.57 l -45.435,-74.44 c -1.128,-1.77 -1.773,-3.54 -3.062,-3.54 -1.773,0 -1.934,2.58 -1.934,5.16 l 0.645,84.1 h -21.43 v -94.74 c 0,-6.44 0.321,-19.33 16.594,-19.33 11.441,0 14.828,5.8 17.887,10.63 l 46.405,74.92 c 1.77,2.74 2.9,5.16 4.19,5.16 1.45,0 1.61,-1.93 1.61,-3.71 l -0.81,-85.71 z m 97.93,0 v 85.39 h -18.86 v -34.16 h -40.76 v 34.16 h -18.85 v -85.39 h 18.85 v 36.73 h 40.76 v -36.73 z m 62.31,0 v 70.89 h 32.06 v 14.5 h -82.98 v -14.5 h 32.07 v -70.89 z m 117.26,0 v 14.5 h -41.74 c -16.11,0 -18.37,9.02 -18.37,21.91 h 49.63 c 9.67,0 13.21,6.45 13.21,16.11 0,27.39 -16.91,33.84 -41.08,33.84 -29.01,0 -41.25,-9.67 -41.25,-43.5 0,-27.4 4.83,-42.86 32.22,-42.86 z m -60.11,50.91 c 0,14.5 5.64,20.95 21.76,20.95 11.27,0 21.59,-4.68 21.59,-15.95 0,-2.42 -0.49,-5 -4.19,-5 z m 68.44,-50.91 h 20.62 l 24.98,65.89 c 0.32,0.81 0.8,2.42 1.61,2.42 0.8,0 1.29,-1.61 1.61,-2.42 l 24.97,-65.89 h 20.63 l -33.68,79.27 c -2.41,5.8 -8.38,7.09 -13.53,7.09 -5.16,0 -11.12,-1.29 -13.53,-7.09 z m 95.18,0 h 20.63 l 24.97,65.89 c 0.32,0.81 0.8,2.42 1.61,2.42 0.81,0 1.29,-1.61 1.61,-2.42 l 24.98,-65.89 h 20.62 l -33.67,79.27 c -2.42,5.8 -8.38,7.09 -13.54,7.09 -5.15,0 -11.12,-1.29 -13.53,-7.09 z m 179.61,0 v 14.5 h -41.73 c -16.11,0 -18.37,9.02 -18.37,21.91 h 49.63 c 9.67,0 13.22,6.45 13.22,16.11 0,27.39 -16.93,33.84 -41.09,33.84 -29.01,0 -41.25,-9.67 -41.25,-43.5 0,-27.4 4.83,-42.86 32.22,-42.86 z m -60.1,50.91 c 0,14.5 5.64,20.95 21.76,20.95 11.27,0 21.59,-4.68 21.59,-15.95 0,-2.42 -0.49,-5 -4.19,-5 z m 158.67,-50.91 -36.41,38.02 c -1.29,1.29 -3.07,4.19 -3.07,5.96 0,2.74 2.58,5.48 4.03,6.93 l 32.39,34.48 h -22.4 l -27.23,-30.29 c -2.42,-2.74 -5.96,-6.76 -5.96,-11.12 0,-4.35 2.9,-7.89 4.83,-9.99 l 31.1,-33.99 z m -62.36,0 v 85.39 h -18.85 v -85.39 z m 116.61,0 v 70.89 h 32.07 v 14.5 h -82.98 v -14.5 h 32.06 v -70.89 z m 134.34,85.39 h -19.18 l -29,-65.57 -27.39,65.57 h -19.49 l 38.02,-85.07 -13.05,-27.88 h 19.17 z m 8.66,0 v -14.5 h 41.73 c 8.05,0 11.92,-4.19 11.92,-12.25 v -5.47 h -38.67 c -14.5,0 -21.27,-10.48 -21.27,-26.59 0,-17.72 6.77,-26.58 21.27,-26.58 h 43.02 c 9.67,0 14.5,4.83 14.5,14.5 v 45.76 c 0,14.5 -7.89,25.13 -24,25.13 z m 53.65,-46.73 v -19.33 c 0,-3.22 -1.61,-4.83 -4.83,-4.83 h -26.59 c -6.44,0 -9.02,4.02 -9.02,12.08 0,8.06 2.58,12.08 9.02,12.08 z m 27.03,-38.66 h 20.62 l 24.98,65.89 c 0.32,0.81 0.8,2.42 1.61,2.42 0.8,0 1.29,-1.61 1.61,-2.42 l 24.97,-65.89 h 20.63 l -33.68,79.27 c -2.42,5.8 -8.38,7.09 -13.53,7.09 -5.16,0 -11.12,-1.29 -13.54,-7.09 z m 159.95,0 c 16.76,0 21.59,10.47 21.59,26.58 0,16.11 -4.83,26.43 -21.59,26.43 h -38.51 v 32.38 h -18.85 v -70.89 c 0,-9.67 4.84,-14.5 14.5,-14.5 z m -38.51,38.5 h 30.62 c 8.05,0 9.99,-3.86 9.99,-11.92 0,-8.06 -1.94,-12.08 -9.99,-12.08 h -25.78 c -3.23,0 -4.84,1.61 -4.84,4.83 z m 152.55,-38.5 v 85.39 h -18.86 v -34.16 h -40.76 v 34.16 h -18.85 v -85.39 h 18.85 v 36.73 h 40.76 v -36.73 z m 104.69,0 h 18.85 v 85.39 h -18.85 z m -31.75,0 c 16.76,0 21.59,10.47 21.59,26.58 0,16.11 -4.83,26.43 -21.59,26.43 h -36.89 v 32.38 h -18.86 v -70.89 c 0,-9.67 4.84,-14.5 14.51,-14.5 z m -36.89,38.5 h 29 c 8.05,0 9.99,-3.86 9.99,-11.92 0,-8.06 -1.94,-12.08 -9.99,-12.08 h -24.17 c -3.22,0 -4.83,1.61 -4.83,4.83 z m 181.7,-38.5 v 14.5 h -41.73 c -16.11,0 -18.37,9.02 -18.37,21.91 h 49.63 c 9.67,0 13.21,6.45 13.21,16.11 0,27.39 -16.92,33.84 -41.09,33.84 -29,0 -41.25,-9.67 -41.25,-43.5 0,-27.4 4.84,-42.86 32.23,-42.86 z m -60.1,50.91 c 0,14.5 5.64,20.95 21.75,20.95 11.28,0 21.59,-4.68 21.59,-15.95 0,-2.42 -0.48,-5 -4.18,-5 z m -1421.44,-87.65 c -41.735,0 -57.848,-12.08 -57.848,-57.69 0,-45.59 16.113,-57.68 57.848,-57.68 42.05,0 58,12.09 58,57.68 0,45.61 -15.95,57.69 -58,57.69 z m -35.934,-57.69 c 0,32.23 8.214,40.77 35.934,40.77 27.71,0 36.09,-8.54 36.09,-40.77 0,-32.22 -8.38,-40.76 -36.09,-40.76 -27.72,0 -35.934,8.54 -35.934,40.76 z m 110.164,-56.39 h 18.86 v 66.06 c 0,3.22 1.6,4.83 4.83,4.83 h 31.26 c 3.22,0 4.83,-1.61 4.83,-4.83 v -66.06 h 18.85 v 70.89 c 0,9.68 -4.83,14.51 -14.5,14.51 h -49.63 c -9.66,0 -14.5,-4.83 -14.5,-14.51 z m 140.95,0 v 70.89 h 32.06 v 14.51 h -82.98 v -14.51 h 32.06 v -70.89 z m 125.47,0 v 73.31 c 0,12.73 -9.83,13.05 -12.41,13.05 -3.86,0 -8.21,-0.8 -11.6,-5.79 l -38.02,-55.92 c -0.65,-1.12 -1.13,-2.25 -2.26,-2.25 -1.29,0 -1.29,0.8 -1.29,2.25 l 0.8,60.75 h -18.84 v -74.28 c 0,-4.51 1.44,-12.09 12.4,-12.09 6.44,0 9.19,2.26 12.25,6.77 l 37.54,54.95 c 1.29,1.93 1.77,2.25 2.26,2.25 0.64,0 0.96,-0.48 0.96,-2.25 l -0.64,-60.75 z m 92.76,0 v 85.4 h -18.85 v -35.13 h -28.52 c -9.67,0 -11.92,4.03 -11.92,13.7 v 21.43 h -18.86 v -25.46 c 0,-16.11 5.49,-24.17 21.6,-24.17 h 37.7 v -35.77 z m 94.22,0 v 14.5 h -41.74 c -16.11,0 -18.36,9.03 -18.36,21.91 h 49.62 c 9.67,0 13.22,6.45 13.22,16.12 0,27.39 -16.92,33.83 -41.09,33.83 -29,0 -41.25,-9.66 -41.25,-43.5 0,-27.39 4.84,-42.86 32.23,-42.86 z m -60.1,50.92 c 0,14.5 5.64,20.94 21.75,20.94 11.28,0 21.59,-4.67 21.59,-15.95 0,-2.41 -0.48,-4.99 -4.19,-4.99 z m 147.22,19.97 v 14.51 h -35.77 c -29,0 -36.57,-16.76 -36.57,-42.54 0,-25.78 7.57,-42.86 36.57,-42.86 h 37.71 v 14.5 h -33.03 c -19.82,0 -21.76,12.25 -21.76,28.36 0,16.11 1.94,28.03 21.76,28.03 z m 96.8,-70.89 -36.42,38.03 c -1.29,1.29 -3.06,4.19 -3.06,5.96 0,2.74 2.58,5.47 4.03,6.93 l 32.38,34.48 h -22.39 l -27.23,-30.3 c -2.42,-2.73 -5.96,-6.76 -5.96,-11.11 0,-4.35 2.9,-7.9 4.83,-9.99 l 31.1,-34 z m -62.36,0 v 85.4 h -18.85 v -85.4 z m 153.51,0 v 73.31 c 0,12.73 -9.83,13.05 -12.41,13.05 -3.86,0 -8.22,-0.8 -11.6,-5.79 l -38.02,-55.92 c -0.65,-1.12 -1.13,-2.25 -2.26,-2.25 -1.29,0 -1.29,0.8 -1.29,2.25 l 0.81,60.75 h -18.86 v -74.28 c 0,-4.51 1.45,-12.09 12.41,-12.09 6.45,0 9.19,2.26 12.25,6.77 l 37.54,54.95 c 1.29,1.93 1.77,2.25 2.26,2.25 0.64,0 0.96,-0.48 0.96,-2.25 l -0.64,-60.75 z m 94.21,0 v 14.5 h -41.73 c -16.11,0 -18.37,9.03 -18.37,21.91 h 49.63 c 9.67,0 13.21,6.45 13.21,16.12 0,27.39 -16.92,33.83 -41.08,33.83 -29.01,0 -41.25,-9.66 -41.25,-43.5 0,-27.39 4.83,-42.86 32.22,-42.86 z m -60.1,50.92 c 0,14.5 5.64,20.94 21.76,20.94 11.27,0 21.59,-4.67 21.59,-15.95 0,-2.41 -0.49,-4.99 -4.19,-4.99 z m -799.75,-201.73 v 16.91 h -37.06 c -27.395,0 -35.934,8.87 -35.934,39.48 0,30.61 8.539,39.48 35.934,39.48 h 35.28 v 16.91 h -45.273 c -38.672,0 -47.855,-24.17 -47.855,-56.39 0,-32.23 9.183,-56.39 47.855,-56.39 z m 98.24,0 v 73.31 c 0,12.73 -9.83,13.05 -12.41,13.05 -3.86,0 -8.21,-0.8 -11.6,-5.8 l -38.03,-55.91 c -0.64,-1.13 -1.12,-2.26 -2.25,-2.26 -1.29,0 -1.29,0.81 -1.29,2.26 l 0.81,60.74 h -18.85 V 1230 c 0,-4.51 1.44,-12.08 12.4,-12.08 6.45,0 9.18,2.26 12.25,6.76 l 37.54,54.95 c 1.29,1.94 1.77,2.26 2.26,2.26 0.64,0 0.96,-0.49 0.96,-2.26 l -0.64,-60.74 z m 86.96,70.89 v 14.5 h -35.77 c -29,0 -36.57,-16.75 -36.57,-42.53 0,-25.79 7.57,-42.86 36.57,-42.86 h 37.7 v 14.5 h -33.03 c -19.81,0 -21.75,12.24 -21.75,28.36 0,16.11 1.94,28.03 21.75,28.03 z m 60.7,-70.89 v 70.89 h 32.07 v 14.5 H 1237 v -14.5 h 32.06 v -70.89 z m 117.26,0 v 14.5 h -41.73 c -16.12,0 -18.37,9.02 -18.37,21.91 h 49.62 c 9.67,0 13.22,6.45 13.22,16.11 0,27.39 -16.92,33.84 -41.09,33.84 -29,0 -41.25,-9.67 -41.25,-43.5 0,-27.39 4.84,-42.86 32.23,-42.86 z m -60.1,50.91 c 0,14.5 5.64,20.95 21.75,20.95 11.28,0 21.59,-4.68 21.59,-15.95 0,-2.42 -0.48,-5 -4.19,-5 z m 163.34,10.64 c 0.48,0.64 0.97,1.93 1.45,1.93 0.48,0 0.96,-0.48 0.96,-1.61 l -0.8,-61.87 h 18.85 V 1293 c 0,8.38 -6.93,12.25 -14.66,12.25 -7.09,0 -11.76,-2.25 -14.5,-9.18 l -21.6,-54.3 c -0.48,-0.81 -1.61,-3.39 -2.41,-3.39 -0.81,0 -1.94,2.58 -2.42,3.39 l -21.59,54.3 c -2.74,6.93 -7.41,9.18 -14.5,9.18 -7.74,0 -14.66,-3.87 -14.66,-12.25 v -74.11 h 18.85 l -0.81,61.87 c 0,0.48 -0.16,1.45 0.97,1.45 0.64,0 1.13,-1.29 1.29,-1.77 l 21.91,-55.43 c 1.29,-3.38 4.03,-7.09 10.96,-7.09 6.93,0 9.66,3.71 10.96,7.09 z m 125.15,-61.55 h 18.85 v 85.39 h -18.85 z m -31.74,0 c 16.75,0 21.59,10.47 21.59,26.58 0,16.11 -4.84,26.42 -21.59,26.42 h -36.9 v 32.39 h -18.85 v -70.89 c 0,-9.67 4.83,-14.5 14.5,-14.5 z m -36.9,38.5 h 29 c 8.06,0 9.99,-3.86 9.99,-11.92 0,-8.06 -1.93,-12.08 -9.99,-12.08 h -24.17 c -3.22,0 -4.83,1.61 -4.83,4.83 v 19.17"/></g></g></svg>