<svg version="1.1" width="539.232" height="534.352" viewBox="0 0 404.424 400.764" xmlns="http://www.w3.org/2000/svg" xmlns:xlink="http://www.w3.org/1999/xlink" id="Logo" overflow="hidden"><defs><radialGradient cx="192.673" cy="125.15" r="41.9011" gradientUnits="userSpaceOnUse" id="radial-gradient"><stop offset="0" stop-color="#4896D2"/><stop offset="1" stop-color="#1A2165"/></radialGradient><linearGradient x1="101.706" y1="121.707" x2="172.176" y2="13.1924" xlink:href="#radial-gradient" id="linear-gradient"></linearGradient><linearGradient x1="129.834" y1="-3.35432" x2="304.893" y2="67.3738" xlink:href="#radial-gradient" id="linear-gradient-2"></linearGradient><linearGradient x1="-2903.39" y1="-3282.69" x2="-2832.92" y2="-3391.2" xlink:href="#radial-gradient" id="linear-gradient-3" gradientTransform="matrix(-0.500011,-0.866019,0.866019,-0.500011,1626.25,-3916.91)"></linearGradient><linearGradient x1="-2875.27" y1="-3407.75" x2="-2700.19" y2="-3337.01" xlink:href="#radial-gradient" id="linear-gradient-4" gradientTransform="matrix(-0.500011,-0.866019,0.866019,-0.500011,1626.25,-3916.91)"></linearGradient><linearGradient x1="1547.69" y1="-4183.2" x2="1618.16" y2="-4291.72" xlink:href="#radial-gradient" id="linear-gradient-5" gradientTransform="matrix(-0.500011,0.866019,-0.866019,-0.500011,-2579.01,-3367.21)"></linearGradient><linearGradient x1="1575.81" y1="-4308.26" x2="1750.88" y2="-4237.53" xlink:href="#radial-gradient" id="linear-gradient-6" gradientTransform="matrix(-0.500011,0.866019,-0.866019,-0.500011,-2579.01,-3367.21)"></linearGradient></defs><g><g><path d=" M 222.151 119.632 C 209.937 108.63 191.117 109.612 180.115 121.825 C 169.113 134.039 170.095 152.859 182.308 163.861 C 194.517 174.859 213.327 173.883 224.332 161.682 C 235.332 149.464 234.356 130.646 222.151 119.632 Z" fill="url(#radial-gradient)"/><path d=" M 116.964 28.5017 C 97.3377 43.2976 81.8809 62.9276 72.1015 85.4771 C 83.879 88.3801 119.141 99.8557 135.319 143.536 C 140.185 141.95 150.674 135.837 157.952 112.235 C 167.711 80.6361 186.224 50.2434 210.232 40.0382 C 186.291 16.3522 154.747 10.7748 116.964 28.5017 Z" fill="url(#linear-gradient)"/><path d=" M 311.364 51.35 L 311.37 51.3418 C 263.077 -6.98738 177.461 -17.0459 116.964 28.5023 C 169.416 3.8921 209.842 24.1941 234.597 75.5093 C 274.03 82.5816 300.81 62.961 311.364 51.35 Z" fill="url(#linear-gradient-2)"/><path d=" M 146.793 272.164 C 169.418 281.764 194.146 285.336 218.563 282.532 C 215.188 270.88 207.495 234.602 237.23 198.75 C 233.424 195.329 222.886 189.3 198.809 194.798 C 166.566 202.145 130.991 201.308 110.15 185.617 C 101.609 218.195 112.551 248.303 146.793 272.164 Z" fill="url(#linear-gradient-3)"/><path d=" M 69.3794 92.3708 L 69.3691 92.3692 C 43.0051 163.361 77.1008 242.538 146.794 272.164 C 99.2568 239.04 96.6245 193.877 128.683 146.778 C 115.091 109.09 84.7104 95.7058 69.3794 92.3708 Z" fill="url(#linear-gradient-4)"/><path d=" M 342.879 124.498 C 339.88 100.102 330.61 76.9001 315.972 57.1547 C 307.57 65.9035 280.001 90.7059 234.088 82.8777 C 233.028 87.8849 233.077 100.026 249.876 118.13 C 272.36 142.382 289.422 173.612 286.255 199.508 C 318.736 190.616 339.338 166.085 342.879 124.498 Z" fill="url(#linear-gradient-5)"/><path d=" M 225.894 281.443 L 225.897 281.452 C 300.559 268.784 352.074 199.665 342.879 124.497 C 337.964 182.231 300.171 207.092 243.356 202.876 C 217.515 233.492 221.116 266.497 225.894 281.443 Z" fill="url(#linear-gradient-6)"/></g><g><path d=" M 12.1673 399.79 L 0 399.79 L 0 343.011 L 19.5477 343.011 C 22.8008 342.973 26.0452 343.355 29.2007 344.147 C 31.8505 344.802 34.3449 345.973 36.5408 347.594 C 38.5726 349.141 40.1774 351.178 41.2042 353.516 C 42.3402 356.194 42.8936 359.083 42.8277 361.991 C 42.8804 364.916 42.3135 367.819 41.1644 370.509 C 40.0832 372.961 38.4279 375.117 36.3383 376.795 C 34.0517 378.588 31.4329 379.911 28.6328 380.688 C 25.3076 381.62 21.866 382.071 18.413 382.026 L 12.1673 382.026 Z M 11.9235 371.319 L 18.5753 371.319 C 22.2515 371.319 25.1175 370.603 27.1731 369.17 C 29.2272 367.738 30.2545 365.508 30.255 362.478 C 30.255 359.288 29.2544 357.03 27.2531 355.706 C 25.2528 354.381 22.387 353.719 18.6555 353.718 L 11.9235 353.718 Z" fill="#3A3A39"/><path d=" M 79.6513 400.764 C 75.8222 400.811 72.0162 400.166 68.4172 398.858 C 65.1294 397.647 62.1513 395.721 59.6976 393.22 C 57.1772 390.593 55.2542 387.452 54.0602 384.013 C 52.6692 379.957 51.997 375.689 52.0738 371.401 C 51.9953 367.106 52.696 362.833 54.1421 358.788 C 55.3855 355.354 57.333 352.218 59.8598 349.582 C 62.2931 347.094 65.2421 345.17 68.4991 343.944 C 71.9606 342.649 75.631 342.003 79.3266 342.038 C 83.3264 341.971 87.3028 342.659 91.0475 344.066 C 94.3389 345.323 97.3051 347.305 99.726 349.864 C 102.164 352.526 104.004 355.679 105.121 359.112 C 106.413 363.078 107.043 367.23 106.985 371.401 C 107.08 375.856 106.379 380.292 104.918 384.501 C 103.702 387.945 101.735 391.076 99.1592 393.666 C 96.6991 396.072 93.7344 397.901 90.48 399.02 C 86.9948 400.208 83.3334 400.798 79.6513 400.764 Z M 80.0569 390.056 C 82.008 390.077 83.942 389.69 85.7348 388.92 C 87.4803 388.151 89.0117 386.968 90.1961 385.473 C 91.5308 383.75 92.5096 381.779 93.0757 379.674 C 93.7987 376.978 94.14 374.193 94.0896 371.401 C 94.0896 364.966 92.7378 360.247 90.0342 357.246 C 87.3072 354.235 83.3861 352.586 79.3266 352.745 C 77.3894 352.732 75.4703 353.119 73.6891 353.88 C 71.9116 354.653 70.3416 355.834 69.1071 357.328 C 67.7127 359.052 66.6784 361.037 66.0653 363.168 C 65.2907 365.842 64.9214 368.617 64.9698 371.401 C 64.9125 374.204 65.3096 376.998 66.1457 379.674 C 66.8186 381.8 67.9076 383.771 69.3493 385.473 C 70.6535 386.98 72.2924 388.161 74.1349 388.921 C 76.0147 389.686 78.0274 390.072 80.0569 390.056 Z" fill="#3A3A39"/><path d=" M 161.493 397.541 C 160.734 397.918 159.909 398.294 159.019 398.669 C 157.99 399.091 156.933 399.441 155.855 399.716 C 154.469 400.069 153.06 400.325 151.639 400.482 C 149.82 400.681 147.991 400.775 146.162 400.764 C 142.151 400.814 138.16 400.183 134.361 398.898 C 130.974 397.747 127.875 395.88 125.276 393.422 C 122.689 390.905 120.694 387.844 119.437 384.46 C 117.992 380.513 117.291 376.333 117.368 372.131 C 117.291 367.73 117.992 363.351 119.437 359.194 C 121.914 351.994 127.616 346.366 134.848 343.985 C 138.886 342.634 143.123 341.976 147.381 342.038 C 150.173 342.01 152.96 342.282 155.694 342.849 C 157.742 343.259 159.74 343.884 161.656 344.715 L 158.978 354.934 C 157.263 354.344 155.498 353.91 153.706 353.637 C 152.176 353.389 150.631 353.253 149.082 353.232 C 146.489 353.201 143.906 353.557 141.419 354.288 C 139.225 354.934 137.202 356.058 135.496 357.581 C 133.79 359.155 132.471 361.102 131.643 363.271 C 130.67 365.882 130.203 368.655 130.266 371.441 C 130.266 377.457 131.956 381.983 135.336 385.017 C 138.713 388.052 143.268 389.57 149.001 389.57 C 150.582 389.54 152.157 389.364 153.706 389.043 C 155.547 388.691 157.343 388.133 159.06 387.38 Z" fill="#3A3A39"/><path d=" M 207.724 387.38 L 185.905 387.38 L 181.849 399.79 L 169.845 399.79 L 189.232 343.011 L 205.048 343.011 L 224.191 399.79 L 211.78 399.79 Z M 189.232 376.673 L 204.4 376.673 L 196.856 352.826 Z" fill="#3A3A39"/><path d=" M 251.852 399.79 L 239.685 399.79 L 239.685 354.204 L 223.542 354.204 L 223.542 343.011 L 267.912 343.011 L 267.912 354.204 L 251.852 354.204 Z" fill="#3A3A39"/><path d=" M 301.167 400.764 C 297.338 400.811 293.532 400.165 289.932 398.858 C 286.645 397.647 283.667 395.721 281.214 393.22 C 278.693 390.593 276.77 387.452 275.577 384.013 C 274.185 379.957 273.512 375.689 273.588 371.401 C 273.51 367.106 274.211 362.833 275.657 358.788 C 276.902 355.355 278.849 352.219 281.375 349.582 C 283.808 347.094 286.757 345.17 290.013 343.944 C 293.476 342.65 297.146 342.004 300.842 342.038 C 304.842 341.971 308.819 342.659 312.563 344.066 C 315.855 345.323 318.821 347.305 321.243 349.864 C 323.68 352.527 325.519 355.68 326.637 359.112 C 327.929 363.078 328.559 367.23 328.501 371.401 C 328.594 375.856 327.895 380.291 326.434 384.501 C 325.219 387.946 323.251 391.077 320.675 393.666 C 318.214 396.072 315.25 397.901 311.995 399.02 C 308.51 400.208 304.849 400.798 301.167 400.764 Z M 301.573 390.056 C 303.524 390.077 305.458 389.69 307.25 388.92 C 308.996 388.152 310.527 386.969 311.71 385.473 C 313.046 383.75 314.025 381.779 314.591 379.674 C 315.315 376.978 315.656 374.193 315.605 371.401 C 315.605 364.966 314.253 360.247 311.55 357.246 C 308.823 354.235 304.902 352.586 300.843 352.745 C 298.905 352.732 296.986 353.119 295.204 353.88 C 293.427 354.653 291.857 355.834 290.622 357.328 C 289.227 359.051 288.193 361.037 287.581 363.168 C 286.806 365.842 286.437 368.617 286.486 371.401 C 286.429 374.204 286.825 376.998 287.661 379.674 C 288.334 381.801 289.424 383.772 290.866 385.473 C 292.169 386.981 293.808 388.162 295.651 388.921 C 297.531 389.686 299.543 390.072 301.573 390.056 Z" fill="#3A3A39"/><path d=" M 404.424 399.79 L 392.176 399.79 L 389.093 362.072 L 377.414 399.79 L 365.814 399.79 L 354.295 362.235 L 351.214 399.79 L 338.967 399.79 L 344.643 343.011 L 359.163 343.011 L 371.978 385.839 L 384.633 343.011 L 398.664 343.011 Z" fill="#3A3A39"/></g></g></svg>