<?xml version="1.0" encoding="UTF-8" standalone="no"?>
<svg
   xmlns:dc="http://purl.org/dc/elements/1.1/"
   xmlns:cc="http://creativecommons.org/ns#"
   xmlns:rdf="http://www.w3.org/1999/02/22-rdf-syntax-ns#"
   xmlns:svg="http://www.w3.org/2000/svg"
   xmlns="http://www.w3.org/2000/svg"
   viewBox="0 0 612 530.66669"
   height="530.66669"
   width="612"
   xml:space="preserve"
   id="svg2"
   version="1.1"><metadata
     id="metadata8"><rdf:RDF><cc:Work
         rdf:about=""><dc:format>image/svg+xml</dc:format><dc:type
           rdf:resource="http://purl.org/dc/dcmitype/StillImage" /></cc:Work></rdf:RDF></metadata><defs
     id="defs6"><clipPath
       id="clipPath22"
       clipPathUnits="userSpaceOnUse"><path
         style="clip-rule:evenodd"
         id="path20"
         d="m 1368.25,3561.26 1060.39,-127.08 c 9.65,33.44 29.24,62.24 55.41,83.6 v 0 l -260.66,456.01 c -339.33,-19.67 -642.17,-174.95 -855.14,-412.53 z m 2174.27,-834.44 v 3.08 c 0,267.42 -84.44,514.87 -227.79,717.85 v 0 l -556.75,-67.26 c -1.33,-32.4 -11.72,-62.31 -28.75,-87.44 v 0 l 798.28,-756.81 c 9.67,62.17 14.85,125.8 15.01,190.58 z m -991.25,824.13 c 13.57,3.24 27.63,5.45 42.25,5.13 v 0 c 68.73,-1.44 126.83,-44.05 151.77,-103.71 v 0 l 475.73,112.91 c -211.52,233.96 -510.5,387.02 -845.33,408.07 v 0 z M 1050.16,2729.9 c 0,-70.11 6.11,-138.69 17.27,-205.62 v 0 l 1365.35,802.65 c -5.1,13.33 -8.03,27.54 -9.55,42.24 v 0 L 1265.42,3430 c -135.83,-199.52 -215.26,-440.51 -215.26,-700.1 z m 51.68,-355.15 c 93.43,-314.52 307.49,-576.95 588.84,-733.75 v 0 l 800.76,1609.84 c -9.2,6.67 -17.58,14.3 -25.21,22.57 v 0 z m 1541.26,853.52 255.41,-1589.36 c 283.92,157 499.78,421.57 593.13,738.69 v 0 l -808.47,869.79 c -12.25,-8.19 -25.77,-14.37 -40.07,-19.12 z M 1822.18,1577.48 c 146.23,-60.32 306.41,-93.68 474.28,-93.68 164.39,0 321.23,32.13 464.93,89.98 v 0 L 2580.98,3219.6 c -11.35,0.65 -22.4,2.25 -33.09,5.02 v 0 z" /></clipPath></defs><g
     transform="matrix(1.3333333,0,0,-1.3333333,0,530.66667)"
     id="g10"><g
       transform="scale(0.1)"
       id="g12"><path
         id="path14"
         style="fill:#0068ac;fill-opacity:1;fill-rule:nonzero;stroke:none"
         d="m 466.629,786.961 c -23.699,21.684 -52.242,37.711 -85.57,48.148 -33.325,10.516 -69.621,15.739 -109.016,15.739 H 5.86719 V 12.4922 H 180.535 V 318.336 h 101.184 c 40.156,0 76.293,6.43 108.461,19.316 32.074,12.93 59.34,30.879 81.949,54.164 22.398,23.289 39.664,51.434 51.75,84.329 12.008,32.886 18.027,69.421 18.027,109.574 0,45.937 -6.578,85.398 -19.836,118.726 -13.25,33.336 -31.754,60.879 -55.441,82.516 z M 341.383,505.09 c -19.668,-16.137 -42.434,-24.051 -68.051,-24.051 h -92.797 v 208.359 h 91.508 c 30.516,0 54.691,-7.796 72.309,-23.46 17.679,-15.696 26.511,-41.633 26.511,-77.77 0,-39.313 -9.883,-66.973 -29.48,-83.078 z m 801.647,266.812 c -21.64,25.336 -49.42,45.817 -83.15,61.364 -33.68,15.73 -73.474,23.523 -119.173,23.523 -49.102,0 -90.668,-8.195 -124.789,-24.652 -34.09,-16.469 -62.043,-37.504 -83.68,-63.285 -21.73,-25.696 -37.312,-54.45 -46.988,-86.125 -9.625,-31.676 -14.488,-63.204 -14.488,-94.559 V 289.473 c 0,-37.789 5.019,-73.879 15.058,-108.461 10.039,-34.563 25.942,-64.758 47.657,-90.8597 21.683,-26.2226 49.511,-46.8125 83.679,-62.0781 34.133,-15.2617 75.289,-22.96873 123.551,-22.96873 39.266,0 75.293,6.35153 107.733,18.71483 32.56,12.4492 60.63,30.5625 84.31,54.2422 23.7,23.6995 42.21,52.2465 55.45,85.5705 13.25,33.25 19.93,70.785 19.93,112.547 v 311.988 c 0,32.926 -5.5,65.492 -16.31,97.609 -10.92,32.086 -27.06,60.789 -48.79,86.125 z m -110.89,-507.73 c 0,-28.149 -9.04,-50.184 -27.07,-66.289 -18.109,-16.059 -39.586,-24.051 -64.363,-24.051 -34.613,0 -59.309,10.359 -74.199,31.277 -14.817,20.84 -22.285,47.461 -22.285,79.457 v 310.872 c 0,9.597 1.797,19.953 5.418,30.675 3.699,10.914 9.312,20.953 16.867,30.153 7.66,9.195 17.539,16.82 29.547,22.886 12.008,6.024 26.906,9.075 44.652,9.075 17.551,0 32.199,-3.532 43.887,-10.313 11.601,-6.797 21.116,-15.059 28.306,-24.574 7.23,-9.723 12.25,-19.758 15.06,-30.195 2.77,-10.485 4.18,-19.762 4.18,-27.707 z M 2754.68,12.4922 h 487.89 V 177.406 H 2929.43 V 355.68 h 269.78 v 160.258 h -269.78 v 173.414 h 313.14 V 850.805 H 2754.68 Z M 4429.05,850.805 4189.3,364.16 h -2.37 V 850.805 H 4013.47 V 12.4922 h 163.83 l 233.68,456.3828 h 1.21 V 12.4922 h 174.7 V 850.805 Z M 3338.95,691.844 h 179.44 V 12.4922 h 173.46 V 691.844 h 179.52 V 850.805 H 3338.95 Z M 1556.17,626.113 c 3.21,10.914 8.39,20.953 15.66,30.153 7.23,9.148 16.86,16.82 28.95,22.922 12.01,5.988 26.9,9.003 44.52,9.003 16.87,0 31.33,-3.222 43.41,-9.675 12.04,-6.43 22.08,-14.102 30.12,-22.856 7.99,-8.832 13.77,-18.633 17.46,-29.547 3.54,-10.722 6.19,-20.285 7.83,-28.304 l 164.94,49.418 c -5.57,27.273 -15.21,53.687 -28.86,78.945 -13.66,25.258 -31.36,47.621 -53,66.859 -21.72,19.266 -47.79,34.645 -78.25,46.332 -30.61,11.68 -65.06,17.426 -103.65,17.426 -48.98,0 -90.54,-8.195 -124.67,-24.652 -34.13,-16.469 -61.88,-37.504 -83.11,-63.285 -21.29,-25.696 -36.7,-54.403 -46.38,-86.09 -9.64,-31.711 -14.42,-63.274 -14.42,-94.594 v -298.66 c 0,-37.824 5.02,-73.961 15.06,-108.496 10.04,-34.485 25.66,-64.758 46.9,-90.8597 21.32,-26.2226 49.03,-46.8125 83.12,-62.1093 34.13,-15.2305 75.29,-22.88675 123.5,-22.88675 68.27,0 126.13,18.45705 173.43,55.40235 47.41,36.9453 77.09,87.9374 89.22,153.0194 l -166.31,48.227 c -3.23,-27.387 -14.06,-48.832 -32.49,-64.446 -18.44,-15.695 -39.75,-23.527 -63.85,-23.527 -34.49,0 -58.85,10.402 -72.83,31.277 -14.06,20.875 -21.08,47.461 -21.08,79.5 v 310.829 c 0,9.597 1.57,19.953 4.78,30.675 z m 679.38,0 c 3.22,10.914 8.39,20.953 15.66,30.153 7.23,9.148 16.86,16.82 28.95,22.922 12,5.988 26.91,9.003 44.52,9.003 16.87,0 31.33,-3.222 43.37,-9.675 12.01,-6.43 22.05,-14.102 30.12,-22.856 8.03,-8.832 13.89,-18.633 17.5,-29.547 3.54,-10.722 6.19,-20.285 7.83,-28.304 l 164.95,49.418 c -5.58,27.273 -15.22,53.687 -28.87,78.945 -13.65,25.258 -31.35,47.621 -53,66.859 -21.72,19.266 -47.78,34.645 -78.3,46.332 -30.56,11.68 -65,17.426 -103.6,17.426 -48.97,0 -90.54,-8.195 -124.66,-24.652 -34.13,-16.469 -61.88,-37.504 -83.12,-63.285 -21.29,-25.696 -36.7,-54.403 -46.37,-86.09 -9.64,-31.711 -14.42,-63.274 -14.42,-94.594 v -298.66 c 0,-37.824 5.02,-73.961 15.05,-108.496 10.04,-34.485 25.66,-64.758 46.9,-90.8597 21.33,-26.2226 49.03,-46.8125 83.2,-62.1093 34.05,-15.2305 75.29,-22.88675 123.42,-22.88675 68.27,0 126.13,18.45705 173.43,55.40235 47.42,36.9453 77.09,87.9374 89.14,153.0194 l -166.23,48.227 c -3.22,-27.387 -13.98,-48.832 -32.48,-64.446 -18.52,-15.695 -39.76,-23.527 -63.86,-23.527 -34.48,0 -58.85,10.402 -72.83,31.277 -14.06,20.875 -21.08,47.461 -21.08,79.5 v 310.829 c 0,9.597 1.57,19.953 4.78,30.675" /><g
         id="g16"><g
           clip-path="url(#clipPath22)"
           id="g18"><path
             id="path24"
             style="fill:#0067ac;fill-opacity:1;fill-rule:evenodd;stroke:none"
             d="M 1050.16,3973.79 H 3542.52 V 1483.8 H 1050.16 v 2489.99" /><path
             id="path26"
             style="fill:#4789c8;fill-opacity:1;fill-rule:evenodd;stroke:none"
             d="m 2506.21,3354.71 c 0,12 -9.72,21.73 -21.72,21.73 -11.99,0 -21.72,-9.73 -21.72,-21.73 0,-11.99 9.73,-21.71 21.72,-21.71 12,0 21.72,9.72 21.72,21.71" /><path
             id="path28"
             style="fill:#4689c8;fill-opacity:1;fill-rule:evenodd;stroke:none"
             d="m 2498.98,3354.71 c 0,-7.99 -6.49,-14.48 -14.49,-14.48 -7.99,0 -14.48,6.49 -14.48,14.48 0,8 6.49,14.49 14.48,14.49 8,0 14.49,-6.49 14.49,-14.49 z m 21.72,0 c 0,20 -16.21,36.21 -36.21,36.21 -19.99,0 -36.2,-16.21 -36.2,-36.21 0,-19.99 16.21,-36.2 36.2,-36.2 20,0 36.21,16.21 36.21,36.2" /><path
             id="path30"
             style="fill:#4688c8;fill-opacity:1;fill-rule:evenodd;stroke:none"
             d="m 2513.46,3354.71 c 0,-15.99 -12.97,-28.96 -28.97,-28.96 -15.99,0 -28.96,12.97 -28.96,28.96 0,16 12.97,28.97 28.96,28.97 16,0 28.97,-12.97 28.97,-28.97 z m 21.72,0 c 0,28 -22.69,50.69 -50.69,50.69 -27.99,0 -50.68,-22.69 -50.68,-50.69 0,-27.99 22.69,-50.68 50.68,-50.68 28,0 50.69,22.69 50.69,50.68" /><path
             id="path32"
             style="fill:#4588c7;fill-opacity:1;fill-rule:evenodd;stroke:none"
             d="m 2527.94,3354.71 c 0,-23.99 -19.45,-43.44 -43.45,-43.44 -23.99,0 -43.44,19.45 -43.44,43.44 0,24 19.45,43.45 43.44,43.45 24,0 43.45,-19.45 43.45,-43.45 z m 21.72,0 c 0,36 -29.18,65.18 -65.17,65.18 -35.99,0 -65.17,-29.18 -65.17,-65.18 0,-35.98 29.18,-65.16 65.17,-65.16 35.99,0 65.17,29.18 65.17,65.16" /><path
             id="path34"
             style="fill:#4588c7;fill-opacity:1;fill-rule:evenodd;stroke:none"
             d="m 2542.42,3354.71 c 0,-31.98 -25.94,-57.92 -57.93,-57.92 -31.99,0 -57.92,25.94 -57.92,57.92 0,32 25.93,57.93 57.92,57.93 31.99,0 57.93,-25.93 57.93,-57.93 z m 21.72,0 c 0,44 -35.66,79.66 -79.65,79.66 -43.99,0 -79.65,-35.66 -79.65,-79.66 0,-43.98 35.66,-79.64 79.65,-79.64 43.99,0 79.65,35.66 79.65,79.64" /><path
             id="path36"
             style="fill:#4488c7;fill-opacity:1;fill-rule:evenodd;stroke:none"
             d="m 2556.91,3354.71 c 0,-39.98 -32.43,-72.41 -72.42,-72.41 -39.99,0 -72.41,32.43 -72.41,72.41 0,40 32.42,72.42 72.41,72.42 39.99,0 72.42,-32.42 72.42,-72.42 z m 21.72,0 c 0,51.99 -42.15,94.14 -94.14,94.14 -51.98,0 -94.13,-42.15 -94.13,-94.14 0,-51.98 42.15,-94.13 94.13,-94.13 51.99,0 94.14,42.15 94.14,94.13" /><path
             id="path38"
             style="fill:#4487c7;fill-opacity:1;fill-rule:evenodd;stroke:none"
             d="m 2571.39,3354.71 c 0,-47.98 -38.91,-86.89 -86.9,-86.89 -47.99,0 -86.89,38.91 -86.89,86.89 0,48 38.9,86.9 86.89,86.9 47.99,0 86.9,-38.9 86.9,-86.9 z m 21.72,0 c 0,59.99 -48.63,108.62 -108.62,108.62 -59.98,0 -108.61,-48.63 -108.61,-108.62 0,-59.98 48.63,-108.61 108.61,-108.61 59.99,0 108.62,48.63 108.62,108.61" /><path
             id="path40"
             style="fill:#4387c6;fill-opacity:1;fill-rule:evenodd;stroke:none"
             d="m 2585.87,3354.71 c 0,-55.98 -45.39,-101.37 -101.38,-101.37 -55.98,0 -101.37,45.39 -101.37,101.37 0,55.99 45.39,101.38 101.37,101.38 55.99,0 101.38,-45.39 101.38,-101.38 z m 21.72,0 c 0,67.99 -55.11,123.1 -123.1,123.1 -67.98,0 -123.1,-55.11 -123.1,-123.1 0,-67.98 55.12,-123.09 123.1,-123.09 67.99,0 123.1,55.11 123.1,123.09" /><path
             id="path42"
             style="fill:#4387c6;fill-opacity:1;fill-rule:evenodd;stroke:none"
             d="m 2600.35,3354.71 c 0,-63.98 -51.87,-115.85 -115.86,-115.85 -63.98,0 -115.85,51.87 -115.85,115.85 0,63.99 51.87,115.86 115.85,115.86 63.99,0 115.86,-51.87 115.86,-115.86 z m 21.72,0 c 0,75.99 -61.59,137.59 -137.58,137.59 -75.98,0 -137.58,-61.6 -137.58,-137.59 0,-75.98 61.6,-137.57 137.58,-137.57 75.99,0 137.58,61.59 137.58,137.57" /><path
             id="path44"
             style="fill:#4287c6;fill-opacity:1;fill-rule:evenodd;stroke:none"
             d="m 2614.83,3354.71 c 0,-71.98 -58.35,-130.33 -130.34,-130.33 -71.98,0 -130.34,58.35 -130.34,130.33 0,71.99 58.36,130.34 130.34,130.34 71.99,0 130.34,-58.35 130.34,-130.34 z m 21.72,0 c 0,83.99 -68.07,152.07 -152.06,152.07 -83.98,0 -152.06,-68.08 -152.06,-152.07 0,-83.98 68.08,-152.05 152.06,-152.05 83.99,0 152.06,68.07 152.06,152.05" /><path
             id="path46"
             style="fill:#4186c6;fill-opacity:1;fill-rule:evenodd;stroke:none"
             d="m 2629.32,3354.71 c 0,-79.98 -64.84,-144.81 -144.83,-144.81 -79.98,0 -144.81,64.83 -144.81,144.81 0,79.99 64.83,144.83 144.81,144.83 79.99,0 144.83,-64.84 144.83,-144.83 z m 21.72,0 c 0,91.99 -74.57,166.55 -166.55,166.55 -91.97,0 -166.54,-74.56 -166.54,-166.55 0,-91.97 74.57,-166.54 166.54,-166.54 91.98,0 166.55,74.57 166.55,166.54" /><path
             id="path48"
             style="fill:#4186c6;fill-opacity:1;fill-rule:evenodd;stroke:none"
             d="m 2643.8,3354.71 c 0,-87.97 -71.32,-159.3 -159.31,-159.3 -87.98,0 -159.3,71.33 -159.3,159.3 0,87.99 71.32,159.31 159.3,159.31 87.99,0 159.31,-71.32 159.31,-159.31 z m 21.72,0 c 0,99.99 -81.05,181.03 -181.03,181.03 -99.97,0 -181.02,-81.04 -181.02,-181.03 0,-99.97 81.05,-181.02 181.02,-181.02 99.98,0 181.03,81.05 181.03,181.02" /><path
             id="path50"
             style="fill:#4086c5;fill-opacity:1;fill-rule:evenodd;stroke:none"
             d="m 2658.28,3354.71 c 0,-95.97 -77.81,-173.78 -173.79,-173.78 -95.97,0 -173.78,77.81 -173.78,173.78 0,95.99 77.81,173.79 173.78,173.79 95.98,0 173.79,-77.8 173.79,-173.79 z m 21.72,0 c 0,107.99 -87.53,195.52 -195.51,195.52 -107.97,0 -195.51,-87.53 -195.51,-195.52 0,-107.97 87.54,-195.5 195.51,-195.5 107.98,0 195.51,87.53 195.51,195.5" /><path
             id="path52"
             style="fill:#4086c5;fill-opacity:1;fill-rule:evenodd;stroke:none"
             d="m 2672.76,3354.71 c 0,-103.97 -84.29,-188.26 -188.27,-188.26 -103.97,0 -188.26,84.29 -188.26,188.26 0,103.99 84.29,188.27 188.26,188.27 103.98,0 188.27,-84.28 188.27,-188.27 z m 21.72,0 c 0,115.98 -94.01,210 -209.99,210 -115.97,0 -209.99,-94.02 -209.99,-210 0,-115.97 94.02,-209.98 209.99,-209.98 115.98,0 209.99,94.01 209.99,209.98" /><path
             id="path54"
             style="fill:#3f85c5;fill-opacity:1;fill-rule:evenodd;stroke:none"
             d="m 2687.24,3354.71 c 0,-111.97 -90.77,-202.74 -202.75,-202.74 -111.97,0 -202.74,90.77 -202.74,202.74 0,111.98 90.77,202.75 202.74,202.75 111.98,0 202.75,-90.77 202.75,-202.75 z m 21.72,0 c 0,123.98 -100.49,224.48 -224.47,224.48 -123.97,0 -224.47,-100.5 -224.47,-224.48 0,-123.97 100.5,-224.47 224.47,-224.47 123.98,0 224.47,100.5 224.47,224.47" /><path
             id="path56"
             style="fill:#3f85c5;fill-opacity:1;fill-rule:evenodd;stroke:none"
             d="m 2701.72,3354.71 c 0,-119.97 -97.25,-217.23 -217.23,-217.23 -119.97,0 -217.23,97.26 -217.23,217.23 0,119.98 97.26,217.24 217.23,217.24 119.98,0 217.23,-97.26 217.23,-217.24 z m 21.73,0 c 0,131.98 -106.99,238.96 -238.96,238.96 -131.97,0 -238.95,-106.98 -238.95,-238.96 0,-131.96 106.98,-238.95 238.95,-238.95 131.97,0 238.96,106.99 238.96,238.95" /><path
             id="path58"
             style="fill:#3e85c4;fill-opacity:1;fill-rule:evenodd;stroke:none"
             d="m 2716.21,3354.71 c 0,-127.96 -103.75,-231.71 -231.72,-231.71 -127.97,0 -231.71,103.75 -231.71,231.71 0,127.98 103.74,231.72 231.71,231.72 127.97,0 231.72,-103.74 231.72,-231.72 z m 21.72,0 c 0,139.98 -113.47,253.44 -253.44,253.44 -139.97,0 -253.43,-113.46 -253.43,-253.44 0,-139.96 113.46,-253.43 253.43,-253.43 139.97,0 253.44,113.47 253.44,253.43" /><path
             id="path60"
             style="fill:#3d84c4;fill-opacity:1;fill-rule:evenodd;stroke:none"
             d="m 2730.69,3354.71 c 0,-135.96 -110.23,-246.19 -246.2,-246.19 -135.97,0 -246.19,110.23 -246.19,246.19 0,135.98 110.22,246.2 246.19,246.2 135.97,0 246.2,-110.22 246.2,-246.2 z m 21.72,0 c 0,147.97 -119.95,267.93 -267.92,267.93 -147.96,0 -267.92,-119.96 -267.92,-267.93 0,-147.96 119.96,-267.91 267.92,-267.91 147.97,0 267.92,119.95 267.92,267.91" /><path
             id="path62"
             style="fill:#3d84c4;fill-opacity:1;fill-rule:evenodd;stroke:none"
             d="m 2745.17,3354.71 c 0,-143.96 -116.71,-260.67 -260.68,-260.67 -143.97,0 -260.67,116.71 -260.67,260.67 0,143.98 116.7,260.68 260.67,260.68 143.97,0 260.68,-116.7 260.68,-260.68 z m 21.72,0 c 0,155.97 -126.43,282.41 -282.4,282.41 -155.96,0 -282.4,-126.44 -282.4,-282.41 0,-155.96 126.44,-282.39 282.4,-282.39 155.97,0 282.4,126.43 282.4,282.39" /><path
             id="path64"
             style="fill:#3c84c4;fill-opacity:1;fill-rule:evenodd;stroke:none"
             d="m 2759.65,3354.71 c 0,-151.96 -123.19,-275.15 -275.16,-275.15 -151.96,0 -275.15,123.19 -275.15,275.15 0,151.97 123.19,275.17 275.15,275.17 151.97,0 275.16,-123.2 275.16,-275.17 z m 21.73,0 c 0,163.97 -132.92,296.89 -296.89,296.89 -163.96,0 -296.88,-132.92 -296.88,-296.89 0,-163.96 132.92,-296.87 296.88,-296.87 163.97,0 296.89,132.91 296.89,296.87" /><path
             id="path66"
             style="fill:#3c84c4;fill-opacity:1;fill-rule:evenodd;stroke:none"
             d="m 2774.14,3354.71 c 0,-159.96 -129.68,-289.64 -289.65,-289.64 -159.96,0 -289.64,129.68 -289.64,289.64 0,159.97 129.68,289.65 289.64,289.65 159.97,0 289.65,-129.68 289.65,-289.65 z m 21.72,0 c 0,171.97 -139.41,311.37 -311.37,311.37 -171.96,0 -311.36,-139.4 -311.36,-311.37 0,-171.96 139.4,-311.35 311.36,-311.35 171.96,0 311.37,139.39 311.37,311.35" /><path
             id="path68"
             style="fill:#3b83c3;fill-opacity:1;fill-rule:evenodd;stroke:none"
             d="m 2788.62,3354.71 c 0,-167.96 -136.16,-304.12 -304.13,-304.12 -167.96,0 -304.12,136.16 -304.12,304.12 0,167.97 136.16,304.13 304.12,304.13 167.97,0 304.13,-136.16 304.13,-304.13 z m 21.72,0 c 0,179.97 -145.89,325.85 -325.85,325.85 -179.95,0 -325.84,-145.88 -325.84,-325.85 0,-179.95 145.89,-325.84 325.84,-325.84 179.96,0 325.85,145.89 325.85,325.84" /><path
             id="path70"
             style="fill:#3b83c3;fill-opacity:1;fill-rule:evenodd;stroke:none"
             d="m 2803.1,3354.71 c 0,-175.96 -142.65,-318.6 -318.61,-318.6 -175.96,0 -318.6,142.64 -318.6,318.6 0,175.97 142.64,318.61 318.6,318.61 175.96,0 318.61,-142.64 318.61,-318.61 z m 21.72,0 c 0,187.97 -152.37,340.33 -340.33,340.33 -187.95,0 -340.32,-152.36 -340.32,-340.33 0,-187.95 152.37,-340.32 340.32,-340.32 187.96,0 340.33,152.37 340.33,340.32" /><path
             id="path72"
             style="fill:#3a83c3;fill-opacity:1;fill-rule:evenodd;stroke:none"
             d="m 2817.58,3354.71 c 0,-183.95 -149.13,-333.08 -333.09,-333.08 -183.95,0 -333.08,149.13 -333.08,333.08 0,183.97 149.13,333.09 333.08,333.09 183.96,0 333.09,-149.12 333.09,-333.09 z m 21.72,0 c 0,195.96 -158.85,354.82 -354.81,354.82 -195.95,0 -354.81,-158.86 -354.81,-354.82 0,-195.95 158.86,-354.8 354.81,-354.8 195.96,0 354.81,158.85 354.81,354.8" /><path
             id="path74"
             style="fill:#3a83c3;fill-opacity:1;fill-rule:evenodd;stroke:none"
             d="m 2832.06,3354.71 c 0,-191.95 -155.61,-347.57 -347.57,-347.57 -191.95,0 -347.57,155.62 -347.57,347.57 0,191.96 155.62,347.58 347.57,347.58 191.96,0 347.57,-155.62 347.57,-347.58 z m 21.73,0 c 0,203.96 -165.34,369.3 -369.3,369.3 -203.95,0 -369.29,-165.34 -369.29,-369.3 0,-203.95 165.34,-369.28 369.29,-369.28 203.96,0 369.3,165.33 369.3,369.28" /><path
             id="path76"
             style="fill:#3982c2;fill-opacity:1;fill-rule:evenodd;stroke:none"
             d="m 2846.55,3354.71 c 0,-199.95 -162.1,-362.05 -362.06,-362.05 -199.95,0 -362.05,162.1 -362.05,362.05 0,199.96 162.1,362.06 362.05,362.06 199.96,0 362.06,-162.1 362.06,-362.06 z m 21.72,0 c 0,211.96 -171.82,383.78 -383.78,383.78 -211.95,0 -383.77,-171.82 -383.77,-383.78 0,-211.94 171.82,-383.77 383.77,-383.77 211.96,0 383.78,171.83 383.78,383.77" /><path
             id="path78"
             style="fill:#3882c2;fill-opacity:1;fill-rule:evenodd;stroke:none"
             d="m 2861.03,3354.71 c 0,-207.94 -168.58,-376.53 -376.54,-376.53 -207.95,0 -376.53,168.59 -376.53,376.53 0,207.96 168.58,376.54 376.53,376.54 207.96,0 376.54,-168.58 376.54,-376.54 z m 21.72,0 c 0,219.96 -178.3,398.26 -398.26,398.26 -219.95,0 -398.25,-178.3 -398.25,-398.26 0,-219.94 178.3,-398.25 398.25,-398.25 219.96,0 398.26,178.31 398.26,398.25" /><path
             id="path80"
             style="fill:#3882c2;fill-opacity:1;fill-rule:evenodd;stroke:none"
             d="m 2875.51,3354.71 c 0,-215.94 -175.06,-391.01 -391.02,-391.01 -215.95,0 -391.01,175.07 -391.01,391.01 0,215.96 175.06,391.02 391.01,391.02 215.96,0 391.02,-175.06 391.02,-391.02 z m 21.72,0 c 0,227.96 -184.79,412.75 -412.74,412.75 -227.94,0 -412.74,-184.79 -412.74,-412.75 0,-227.94 184.8,-412.73 412.74,-412.73 227.95,0 412.74,184.79 412.74,412.73" /><path
             id="path82"
             style="fill:#3782c2;fill-opacity:1;fill-rule:evenodd;stroke:none"
             d="m 2889.99,3354.71 c 0,-223.94 -181.54,-405.49 -405.5,-405.49 -223.95,0 -405.49,181.55 -405.49,405.49 0,223.96 181.54,405.5 405.49,405.5 223.96,0 405.5,-181.54 405.5,-405.5 z m 21.72,0 c 0,235.95 -191.27,427.23 -427.22,427.23 -235.94,0 -427.22,-191.28 -427.22,-427.23 0,-235.94 191.28,-427.21 427.22,-427.21 235.95,0 427.22,191.27 427.22,427.21" /><path
             id="path84"
             style="fill:#3781c2;fill-opacity:1;fill-rule:evenodd;stroke:none"
             d="m 2904.48,3354.71 c 0,-231.94 -188.04,-419.97 -419.99,-419.97 -231.94,0 -419.97,188.03 -419.97,419.97 0,231.95 188.03,419.99 419.97,419.99 231.95,0 419.99,-188.04 419.99,-419.99 z m 21.72,0 c 0,243.95 -197.76,441.71 -441.71,441.71 -243.94,0 -441.7,-197.76 -441.7,-441.71 0,-243.94 197.76,-441.7 441.7,-441.7 243.95,0 441.71,197.76 441.71,441.7" /><path
             id="path86"
             style="fill:#3681c1;fill-opacity:1;fill-rule:evenodd;stroke:none"
             d="m 2918.95,3354.71 c 0,-239.94 -194.51,-434.45 -434.46,-434.45 -239.94,0 -434.46,194.51 -434.46,434.45 0,239.95 194.52,434.47 434.46,434.47 239.95,0 434.46,-194.52 434.46,-434.47 z m 21.73,0 c 0,251.95 -204.24,456.19 -456.19,456.19 -251.94,0 -456.18,-204.24 -456.18,-456.19 0,-251.94 204.24,-456.18 456.18,-456.18 251.95,0 456.19,204.24 456.19,456.18" /><path
             id="path88"
             style="fill:#3681c1;fill-opacity:1;fill-rule:evenodd;stroke:none"
             d="m 2933.44,3354.71 c 0,-247.94 -201,-448.94 -448.95,-448.94 -247.94,0 -448.94,201 -448.94,448.94 0,247.95 201,448.95 448.94,448.95 247.95,0 448.95,-201 448.95,-448.95 z m 21.72,0 c 0,259.95 -210.72,470.67 -470.67,470.67 -259.94,0 -470.67,-210.72 -470.67,-470.67 0,-259.94 210.73,-470.66 470.67,-470.66 259.95,0 470.67,210.72 470.67,470.66" /><path
             id="path90"
             style="fill:#3580c1;fill-opacity:1;fill-rule:evenodd;stroke:none"
             d="m 2947.92,3354.71 c 0,-255.94 -207.48,-463.42 -463.43,-463.42 -255.94,0 -463.42,207.48 -463.42,463.42 0,255.95 207.48,463.43 463.42,463.43 255.95,0 463.43,-207.48 463.43,-463.43 z m 21.72,0 c 0,267.95 -217.21,485.16 -485.15,485.16 -267.94,0 -485.15,-217.21 -485.15,-485.16 0,-267.93 217.21,-485.14 485.15,-485.14 267.94,0 485.15,217.21 485.15,485.14" /><path
             id="path92"
             style="fill:#3580c1;fill-opacity:1;fill-rule:evenodd;stroke:none"
             d="m 2962.4,3354.71 c 0,-263.94 -213.96,-477.9 -477.91,-477.9 -263.94,0 -477.9,213.96 -477.9,477.9 0,263.95 213.96,477.92 477.9,477.92 263.95,0 477.91,-213.97 477.91,-477.92 z m 21.73,0 c 0,275.95 -223.7,499.64 -499.64,499.64 -275.94,0 -499.63,-223.69 -499.63,-499.64 0,-275.93 223.69,-499.62 499.63,-499.62 275.94,0 499.64,223.69 499.64,499.62" /><path
             id="path94"
             style="fill:#3480c1;fill-opacity:1;fill-rule:evenodd;stroke:none"
             d="m 2976.88,3354.71 c 0,-271.93 -220.45,-492.38 -492.39,-492.38 -271.94,0 -492.38,220.45 -492.38,492.38 0,271.95 220.44,492.4 492.38,492.4 271.94,0 492.39,-220.45 492.39,-492.4 z m 21.73,0 c 0,283.95 -230.18,514.12 -514.12,514.12 -283.94,0 -514.11,-230.17 -514.11,-514.12 0,-283.93 230.17,-514.11 514.11,-514.11 283.94,0 514.12,230.18 514.12,514.11" /><path
             id="path96"
             style="fill:#3380c0;fill-opacity:1;fill-rule:evenodd;stroke:none"
             d="m 2991.36,3354.71 c 0,-279.93 -226.93,-506.87 -506.87,-506.87 -279.94,0 -506.87,226.94 -506.87,506.87 0,279.95 226.93,506.88 506.87,506.88 279.94,0 506.87,-226.93 506.87,-506.88 z m 21.73,0 c 0,291.94 -236.66,528.6 -528.6,528.6 -291.93,0 -528.59,-236.66 -528.59,-528.6 0,-291.93 236.66,-528.59 528.59,-528.59 291.94,0 528.6,236.66 528.6,528.59" /><path
             id="path98"
             style="fill:#337fc0;fill-opacity:1;fill-rule:evenodd;stroke:none"
             d="m 3005.85,3354.71 c 0,-287.93 -233.42,-521.35 -521.36,-521.35 -287.93,0 -521.35,233.42 -521.35,521.35 0,287.94 233.42,521.36 521.35,521.36 287.94,0 521.36,-233.42 521.36,-521.36 z m 21.72,0 c 0,299.94 -243.14,543.09 -543.08,543.09 -299.93,0 -543.08,-243.15 -543.08,-543.09 0,-299.93 243.15,-543.07 543.08,-543.07 299.94,0 543.08,243.14 543.08,543.07" /><path
             id="path100"
             style="fill:#327fc0;fill-opacity:1;fill-rule:evenodd;stroke:none"
             d="m 3020.33,3354.71 c 0,-295.93 -239.9,-535.83 -535.84,-535.83 -295.93,0 -535.83,239.9 -535.83,535.83 0,295.94 239.9,535.84 535.83,535.84 295.94,0 535.84,-239.9 535.84,-535.84 z m 21.72,0 c 0,307.94 -249.62,557.57 -557.56,557.57 -307.93,0 -557.56,-249.63 -557.56,-557.57 0,-307.92 249.63,-557.55 557.56,-557.55 307.94,0 557.56,249.63 557.56,557.55" /><path
             id="path102"
             style="fill:#327fc0;fill-opacity:1;fill-rule:evenodd;stroke:none"
             d="m 3034.81,3354.71 c 0,-303.93 -246.38,-550.31 -550.32,-550.31 -303.93,0 -550.31,246.38 -550.31,550.31 0,303.94 246.38,550.33 550.31,550.33 303.94,0 550.32,-246.39 550.32,-550.33 z m 21.73,0 c 0,315.93 -256.12,572.05 -572.05,572.05 -315.93,0 -572.04,-256.12 -572.04,-572.05 0,-315.92 256.11,-572.03 572.04,-572.03 315.93,0 572.05,256.11 572.05,572.03" /><path
             id="path104"
             style="fill:#317fbf;fill-opacity:1;fill-rule:evenodd;stroke:none"
             d="m 3049.29,3354.71 c 0,-311.92 -252.87,-564.79 -564.8,-564.79 -311.93,0 -564.79,252.87 -564.79,564.79 0,311.93 252.86,564.81 564.79,564.81 311.93,0 564.8,-252.88 564.8,-564.81 z m 21.73,0 c 0,323.93 -262.6,586.53 -586.53,586.53 -323.93,0 -586.52,-262.6 -586.52,-586.53 0,-323.92 262.59,-586.51 586.52,-586.51 323.93,0 586.53,262.59 586.53,586.51" /><path
             id="path106"
             style="fill:#317ebf;fill-opacity:1;fill-rule:evenodd;stroke:none"
             d="m 3063.78,3354.71 c 0,-319.92 -259.36,-579.28 -579.29,-579.28 -319.93,0 -579.28,259.36 -579.28,579.28 0,319.93 259.35,579.29 579.28,579.29 319.93,0 579.29,-259.36 579.29,-579.29 z m 21.72,0 c 0,331.93 -269.08,601.01 -601.01,601.01 -331.92,0 -601,-269.08 -601,-601.01 0,-331.92 269.08,-601 601,-601 331.93,0 601.01,269.08 601.01,601" /><path
             id="path108"
             style="fill:#307ebf;fill-opacity:1;fill-rule:evenodd;stroke:none"
             d="m 3078.26,3354.71 c 0,-327.92 -265.84,-593.76 -593.77,-593.76 -327.92,0 -593.76,265.84 -593.76,593.76 0,327.93 265.84,593.77 593.76,593.77 327.93,0 593.77,-265.84 593.77,-593.77 z m 21.72,0 c 0,339.93 -275.56,615.49 -615.49,615.49 -339.92,0 -615.48,-275.56 -615.48,-615.49 0,-339.92 275.56,-615.48 615.48,-615.48 339.93,0 615.49,275.56 615.49,615.48" /><path
             id="path110"
             style="fill:#307ebf;fill-opacity:1;fill-rule:evenodd;stroke:none"
             d="m 3092.74,3354.71 c 0,-335.92 -272.32,-608.24 -608.25,-608.24 -335.92,0 -608.24,272.32 -608.24,608.24 0,335.93 272.32,608.25 608.24,608.25 335.93,0 608.25,-272.32 608.25,-608.25 z m 21.72,0 c 0,347.93 -282.05,629.97 -629.97,629.97 -347.92,0 -629.97,-282.04 -629.97,-629.97 0,-347.92 282.05,-629.96 629.97,-629.96 347.92,0 629.97,282.04 629.97,629.96" /><path
             id="path112"
             style="fill:#2f7dbf;fill-opacity:1;fill-rule:evenodd;stroke:none"
             d="m 3107.22,3354.71 c 0,-343.92 -278.8,-622.72 -622.73,-622.72 -343.92,0 -622.72,278.8 -622.72,622.72 0,343.93 278.8,622.74 622.72,622.74 343.93,0 622.73,-278.81 622.73,-622.74 z m 21.73,0 c 0,355.93 -288.54,644.46 -644.46,644.46 -355.92,0 -644.45,-288.53 -644.45,-644.46 0,-355.91 288.53,-644.44 644.45,-644.44 355.92,0 644.46,288.53 644.46,644.44" /><path
             id="path114"
             style="fill:#2e7dbe;fill-opacity:1;fill-rule:evenodd;stroke:none"
             d="m 3121.71,3354.71 c 0,-351.91 -285.3,-637.21 -637.22,-637.21 -351.92,0 -637.21,285.3 -637.21,637.21 0,351.93 285.29,637.22 637.21,637.22 351.92,0 637.22,-285.29 637.22,-637.22 z m 21.72,0 c 0,363.93 -295.02,658.94 -658.94,658.94 -363.92,0 -658.93,-295.01 -658.93,-658.94 0,-363.91 295.01,-658.92 658.93,-658.92 363.92,0 658.94,295.01 658.94,658.92" /><path
             id="path116"
             style="fill:#2e7dbe;fill-opacity:1;fill-rule:evenodd;stroke:none"
             d="m 3136.19,3354.71 c 0,-359.91 -291.78,-651.69 -651.7,-651.69 -359.92,0 -651.69,291.78 -651.69,651.69 0,359.93 291.77,651.7 651.69,651.7 359.92,0 651.7,-291.77 651.7,-651.7 z m 21.72,0 c 0,371.92 -301.5,673.42 -673.42,673.42 -371.91,0 -673.41,-301.5 -673.41,-673.42 0,-371.91 301.5,-673.41 673.41,-673.41 371.92,0 673.42,301.5 673.42,673.41" /><path
             id="path118"
             style="fill:#2d7dbe;fill-opacity:1;fill-rule:evenodd;stroke:none"
             d="m 3150.67,3354.71 c 0,-367.91 -298.26,-666.17 -666.18,-666.17 -367.91,0 -666.17,298.26 -666.17,666.17 0,367.92 298.26,666.18 666.17,666.18 367.92,0 666.18,-298.26 666.18,-666.18 z m 21.72,0 c 0,379.92 -307.98,687.9 -687.9,687.9 -379.91,0 -687.89,-307.98 -687.89,-687.9 0,-379.91 307.98,-687.89 687.89,-687.89 379.92,0 687.9,307.98 687.9,687.89" /><path
             id="path120"
             style="fill:#2d7cbe;fill-opacity:1;fill-rule:evenodd;stroke:none"
             d="m 3165.15,3354.71 c 0,-375.91 -304.74,-680.65 -680.66,-680.65 -375.91,0 -680.65,304.74 -680.65,680.65 0,375.92 304.74,680.67 680.65,680.67 375.92,0 680.66,-304.75 680.66,-680.67 z m 21.73,0 c 0,387.92 -314.47,702.39 -702.39,702.39 -387.91,0 -702.38,-314.47 -702.38,-702.39 0,-387.91 314.47,-702.37 702.38,-702.37 387.92,0 702.39,314.46 702.39,702.37" /><path
             id="path122"
             style="fill:#2c7cbd;fill-opacity:1;fill-rule:evenodd;stroke:none"
             d="m 3179.63,3354.71 c 0,-383.91 -311.22,-695.13 -695.14,-695.13 -383.91,0 -695.14,311.22 -695.14,695.13 0,383.92 311.23,695.15 695.14,695.15 383.92,0 695.14,-311.23 695.14,-695.15 z m 21.73,0 c 0,395.92 -320.95,716.87 -716.87,716.87 -395.91,0 -716.86,-320.95 -716.86,-716.87 0,-395.91 320.95,-716.85 716.86,-716.85 395.92,0 716.87,320.94 716.87,716.85" /><path
             id="path124"
             style="fill:#2c7cbd;fill-opacity:1;fill-rule:evenodd;stroke:none"
             d="m 3194.12,3354.71 c 0,-391.91 -317.71,-709.61 -709.63,-709.61 -391.91,0 -709.61,317.7 -709.61,709.61 0,391.92 317.7,709.63 709.61,709.63 391.92,0 709.63,-317.71 709.63,-709.63 z m 21.72,0 c 0,403.92 -327.43,731.35 -731.35,731.35 -403.9,0 -731.34,-327.43 -731.34,-731.35 0,-403.9 327.44,-731.34 731.34,-731.34 403.92,0 731.35,327.44 731.35,731.34" /><path
             id="path126"
             style="fill:#2b7cbd;fill-opacity:1;fill-rule:evenodd;stroke:none"
             d="m 3208.59,3354.71 c 0,-399.91 -324.18,-724.1 -724.1,-724.1 -399.91,0 -724.1,324.19 -724.1,724.1 0,399.92 324.19,724.11 724.1,724.11 399.92,0 724.1,-324.19 724.1,-724.11 z m 21.73,0 c 0,411.92 -333.92,745.83 -745.83,745.83 -411.9,0 -745.82,-333.91 -745.82,-745.83 0,-411.9 333.92,-745.82 745.82,-745.82 411.91,0 745.83,333.92 745.83,745.82" /><path
             id="path128"
             style="fill:#2a7bbd;fill-opacity:1;fill-rule:evenodd;stroke:none"
             d="m 3223.08,3354.71 c 0,-407.9 -330.68,-738.58 -738.59,-738.58 -407.9,0 -738.58,330.68 -738.58,738.58 0,407.92 330.68,738.59 738.58,738.59 407.91,0 738.59,-330.67 738.59,-738.59 z m 21.72,0 c 0,419.92 -340.4,760.31 -760.31,760.31 -419.9,0 -760.31,-340.39 -760.31,-760.31 0,-419.9 340.41,-760.3 760.31,-760.3 419.91,0 760.31,340.4 760.31,760.3" /><path
             id="path130"
             style="fill:#2a7bbd;fill-opacity:1;fill-rule:evenodd;stroke:none"
             d="m 3237.56,3354.71 c 0,-415.9 -337.16,-753.06 -753.07,-753.06 -415.9,0 -753.06,337.16 -753.06,753.06 0,415.92 337.16,753.07 753.06,753.07 415.91,0 753.07,-337.15 753.07,-753.07 z m 21.73,0 c 0,427.91 -346.89,774.8 -774.8,774.8 -427.9,0 -774.79,-346.89 -774.79,-774.8 0,-427.9 346.89,-774.78 774.79,-774.78 427.91,0 774.8,346.88 774.8,774.78" /><path
             id="path132"
             style="fill:#297bbc;fill-opacity:1;fill-rule:evenodd;stroke:none"
             d="m 3252.04,3354.71 c 0,-423.9 -343.64,-767.54 -767.55,-767.54 -423.9,0 -767.54,343.64 -767.54,767.54 0,423.92 343.64,767.56 767.54,767.56 423.91,0 767.55,-343.64 767.55,-767.56 z m 21.73,0 c 0,435.91 -353.37,789.28 -789.28,789.28 -435.9,0 -789.27,-353.37 -789.27,-789.28 0,-435.9 353.37,-789.26 789.27,-789.26 435.91,0 789.28,353.36 789.28,789.26" /><path
             id="path134"
             style="fill:#297bbc;fill-opacity:1;fill-rule:evenodd;stroke:none"
             d="m 3266.52,3354.71 c 0,-431.9 -350.12,-782.02 -782.03,-782.02 -431.9,0 -782.03,350.12 -782.03,782.02 0,431.91 350.13,782.04 782.03,782.04 431.91,0 782.03,-350.13 782.03,-782.04 z m 21.73,0 c 0,443.91 -359.86,803.76 -803.76,803.76 -443.9,0 -803.75,-359.85 -803.75,-803.76 0,-443.89 359.85,-803.75 803.75,-803.75 443.9,0 803.76,359.86 803.76,803.75" /><path
             id="path136"
             style="fill:#287abc;fill-opacity:1;fill-rule:evenodd;stroke:none"
             d="m 3281.01,3354.71 c 0,-439.9 -356.61,-796.51 -796.52,-796.51 -439.9,0 -796.51,356.61 -796.51,796.51 0,439.91 356.61,796.52 796.51,796.52 439.91,0 796.52,-356.61 796.52,-796.52 z m 21.72,0 c 0,451.91 -366.34,818.24 -818.24,818.24 -451.9,0 -818.23,-366.33 -818.23,-818.24 0,-451.89 366.33,-818.23 818.23,-818.23 451.9,0 818.24,366.34 818.24,818.23" /><path
             id="path138"
             style="fill:#287abc;fill-opacity:1;fill-rule:evenodd;stroke:none"
             d="m 3295.49,3354.71 c 0,-447.89 -363.1,-810.99 -811,-810.99 -447.9,0 -810.99,363.1 -810.99,810.99 0,447.91 363.09,811 810.99,811 447.9,0 811,-363.09 811,-811 z m 21.72,0 c 0,459.9 -372.82,832.73 -832.72,832.73 -459.9,0 -832.72,-372.83 -832.72,-832.73 0,-459.89 372.82,-832.71 832.72,-832.71 459.9,0 832.72,372.82 832.72,832.71" /><path
             id="path140"
             style="fill:#277abb;fill-opacity:1;fill-rule:evenodd;stroke:none"
             d="m 3309.97,3354.71 c 0,-455.89 -369.58,-825.47 -825.48,-825.47 -455.9,0 -825.47,369.58 -825.47,825.47 0,455.91 369.57,825.49 825.47,825.49 455.9,0 825.48,-369.58 825.48,-825.49 z m 21.73,0 c 0,467.9 -379.31,847.21 -847.21,847.21 -467.89,0 -847.2,-379.31 -847.2,-847.21 0,-467.89 379.31,-847.19 847.2,-847.19 467.9,0 847.21,379.3 847.21,847.19" /><path
             id="path142"
             style="fill:#2779bb;fill-opacity:1;fill-rule:evenodd;stroke:none"
             d="m 3324.45,3354.71 c 0,-463.89 -376.06,-839.95 -839.96,-839.95 -463.89,0 -839.95,376.06 -839.95,839.95 0,463.9 376.06,839.97 839.95,839.97 463.9,0 839.96,-376.07 839.96,-839.97 z m 21.73,0 c 0,475.9 -385.79,861.69 -861.69,861.69 -475.89,0 -861.68,-385.79 -861.68,-861.69 0,-475.89 385.79,-861.67 861.68,-861.67 475.9,0 861.69,385.78 861.69,861.67" /><path
             id="path144"
             style="fill:#2679bb;fill-opacity:1;fill-rule:evenodd;stroke:none"
             d="m 3338.93,3354.71 c 0,-471.89 -382.54,-854.44 -854.44,-854.44 -471.89,0 -854.44,382.55 -854.44,854.44 0,471.9 382.55,854.45 854.44,854.45 471.9,0 854.44,-382.55 854.44,-854.45 z m 21.73,0 c 0,483.9 -392.27,876.17 -876.17,876.17 -483.89,0 -876.16,-392.27 -876.16,-876.17 0,-483.89 392.27,-876.16 876.16,-876.16 483.9,0 876.17,392.27 876.17,876.16" /><path
             id="path146"
             style="fill:#2579bb;fill-opacity:1;fill-rule:evenodd;stroke:none"
             d="m 3353.42,3354.71 c 0,-479.89 -389.03,-868.92 -868.93,-868.92 -479.89,0 -868.92,389.03 -868.92,868.92 0,479.9 389.03,868.93 868.92,868.93 479.9,0 868.93,-389.03 868.93,-868.93 z m 21.72,0 c 0,491.9 -398.76,890.65 -890.65,890.65 -491.89,0 -890.64,-398.75 -890.64,-890.65 0,-491.88 398.75,-890.64 890.64,-890.64 491.89,0 890.65,398.76 890.65,890.64" /><path
             id="path148"
             style="fill:#2579bb;fill-opacity:1;fill-rule:evenodd;stroke:none"
             d="m 3367.9,3354.71 c 0,-487.89 -395.52,-883.4 -883.41,-883.4 -487.89,0 -883.4,395.51 -883.4,883.4 0,487.9 395.51,883.41 883.4,883.41 487.89,0 883.41,-395.51 883.41,-883.41 z m 21.72,0 c 0,499.9 -405.24,905.13 -905.13,905.13 -499.88,0 -905.12,-405.23 -905.12,-905.13 0,-499.88 405.24,-905.12 905.12,-905.12 499.89,0 905.13,405.24 905.13,905.12" /><path
             id="path150"
             style="fill:#2478ba;fill-opacity:1;fill-rule:evenodd;stroke:none"
             d="m 3382.38,3354.71 c 0,-495.88 -402,-897.88 -897.89,-897.88 -495.88,0 -897.88,402 -897.88,897.88 0,495.9 402,897.9 897.88,897.9 495.89,0 897.89,-402 897.89,-897.9 z m 21.73,0 c 0,507.89 -411.73,919.62 -919.62,919.62 -507.88,0 -919.61,-411.73 -919.61,-919.62 0,-507.88 411.73,-919.6 919.61,-919.6 507.89,0 919.62,411.72 919.62,919.6" /><path
             id="path152"
             style="fill:#2478ba;fill-opacity:1;fill-rule:evenodd;stroke:none"
             d="m 3396.86,3354.71 c 0,-503.88 -408.48,-912.36 -912.37,-912.36 -503.88,0 -912.36,408.48 -912.36,912.36 0,503.9 408.48,912.38 912.36,912.38 503.89,0 912.37,-408.48 912.37,-912.38 z m 21.73,0 c 0,515.89 -418.21,934.1 -934.1,934.1 -515.88,0 -934.09,-418.21 -934.09,-934.1 0,-515.88 418.21,-934.08 934.09,-934.08 515.89,0 934.1,418.2 934.1,934.08" /><path
             id="path154"
             style="fill:#2378ba;fill-opacity:1;fill-rule:evenodd;stroke:none"
             d="m 3411.35,3354.71 c 0,-511.88 -414.97,-926.85 -926.86,-926.85 -511.88,0 -926.85,414.97 -926.85,926.85 0,511.89 414.97,926.86 926.85,926.86 511.89,0 926.86,-414.97 926.86,-926.86 z m 21.72,0 c 0,523.89 -424.69,948.58 -948.58,948.58 -523.88,0 -948.57,-424.69 -948.57,-948.58 0,-523.87 424.69,-948.57 948.57,-948.57 523.89,0 948.58,424.7 948.58,948.57" /><path
             id="path156"
             style="fill:#2378ba;fill-opacity:1;fill-rule:evenodd;stroke:none"
             d="m 3425.83,3354.71 c 0,-519.88 -421.45,-941.33 -941.34,-941.33 -519.88,0 -941.33,421.45 -941.33,941.33 0,519.89 421.45,941.34 941.33,941.34 519.89,0 941.34,-421.45 941.34,-941.34 z m 21.72,0 c 0,531.89 -431.17,963.06 -963.06,963.06 -531.88,0 -963.05,-431.17 -963.05,-963.06 0,-531.87 431.17,-963.05 963.05,-963.05 531.89,0 963.06,431.18 963.06,963.05" /><path
             id="path158"
             style="fill:#2277b9;fill-opacity:1;fill-rule:evenodd;stroke:none"
             d="m 3440.31,3354.71 c 0,-527.87 -427.93,-955.81 -955.82,-955.81 -527.88,0 -955.81,427.94 -955.81,955.81 0,527.89 427.93,955.83 955.81,955.83 527.89,0 955.82,-427.94 955.82,-955.83 z m 21.72,0 c 0,539.89 -437.65,977.54 -977.54,977.54 -539.88,0 -977.54,-437.65 -977.54,-977.54 0,-539.87 437.66,-977.53 977.54,-977.53 539.89,0 977.54,437.66 977.54,977.53" /><path
             id="path160"
             style="fill:#2277b9;fill-opacity:1;fill-rule:evenodd;stroke:none"
             d="m 3454.79,3354.71 c 0,-535.87 -434.41,-970.29 -970.3,-970.29 -535.88,0 -970.29,434.42 -970.29,970.29 0,535.89 434.41,970.31 970.29,970.31 535.89,0 970.3,-434.42 970.3,-970.31 z m 21.73,0 c 0,547.88 -444.15,992.03 -992.03,992.03 -547.87,0 -992.02,-444.15 -992.02,-992.03 0,-547.87 444.15,-992.01 992.02,-992.01 547.88,0 992.03,444.14 992.03,992.01" /><path
             id="path162"
             style="fill:#2177b9;fill-opacity:1;fill-rule:evenodd;stroke:none"
             d="m 3469.27,3354.71 c 0,-543.87 -440.9,-984.77 -984.78,-984.77 -543.87,0 -984.78,440.9 -984.78,984.77 0,543.89 440.91,984.79 984.78,984.79 543.88,0 984.78,-440.9 984.78,-984.79 z m 21.73,0 c 0,555.88 -450.63,1006.51 -1006.51,1006.51 -555.87,0 -1006.5,-450.63 -1006.5,-1006.51 0,-555.87 450.63,-1006.5 1006.5,-1006.5 555.88,0 1006.51,450.63 1006.51,1006.5" /><path
             id="path164"
             style="fill:#2077b9;fill-opacity:1;fill-rule:evenodd;stroke:none"
             d="m 3483.76,3354.71 c 0,-551.87 -447.39,-999.25 -999.27,-999.25 -551.87,0 -999.26,447.38 -999.26,999.25 0,551.88 447.39,999.27 999.26,999.27 551.88,0 999.27,-447.39 999.27,-999.27 z m 21.72,0 c 0,563.88 -457.11,1020.99 -1020.99,1020.99 -563.87,0 -1020.98,-457.11 -1020.98,-1020.99 0,-563.87 457.11,-1020.98 1020.98,-1020.98 563.88,0 1020.99,457.11 1020.99,1020.98" /><path
             id="path166"
             style="fill:#2076b9;fill-opacity:1;fill-rule:evenodd;stroke:none"
             d="m 3498.24,3354.71 c 0,-559.87 -453.87,-1013.74 -1013.75,-1013.74 -559.87,0 -1013.74,453.87 -1013.74,1013.74 0,559.88 453.87,1013.75 1013.74,1013.75 559.88,0 1013.75,-453.87 1013.75,-1013.75 z m 21.72,0 c 0,571.88 -463.59,1035.47 -1035.47,1035.47 -571.87,0 -1035.46,-463.59 -1035.46,-1035.47 0,-571.87 463.59,-1035.46 1035.46,-1035.46 571.88,0 1035.47,463.59 1035.47,1035.46" /><path
             id="path168"
             style="fill:#1f76b8;fill-opacity:1;fill-rule:evenodd;stroke:none"
             d="m 3512.72,3354.71 c 0,-567.87 -460.35,-1028.22 -1028.23,-1028.22 -567.87,0 -1028.22,460.35 -1028.22,1028.22 0,567.88 460.35,1028.23 1028.22,1028.23 567.88,0 1028.23,-460.35 1028.23,-1028.23 z m 21.73,0 c 0,579.88 -470.08,1049.96 -1049.96,1049.96 -579.87,0 -1049.95,-470.08 -1049.95,-1049.96 0,-579.87 470.08,-1049.94 1049.95,-1049.94 579.88,0 1049.96,470.07 1049.96,1049.94" /><path
             id="path170"
             style="fill:#1f76b8;fill-opacity:1;fill-rule:evenodd;stroke:none"
             d="m 3527.2,3354.71 c 0,-575.87 -466.83,-1042.7 -1042.71,-1042.7 -575.87,0 -1042.7,466.83 -1042.7,1042.7 0,575.88 466.83,1042.72 1042.7,1042.72 575.88,0 1042.71,-466.84 1042.71,-1042.72 z m 21.73,0 c 0,587.88 -476.57,1064.44 -1064.44,1064.44 -587.86,0 -1064.43,-476.56 -1064.43,-1064.44 0,-587.86 476.57,-1064.42 1064.43,-1064.42 587.87,0 1064.44,476.56 1064.44,1064.42" /><path
             id="path172"
             style="fill:#1e75b8;fill-opacity:1;fill-rule:evenodd;stroke:none"
             d="m 3541.68,3354.71 c 0,-583.86 -473.32,-1057.18 -1057.19,-1057.18 -583.86,0 -1057.19,473.32 -1057.19,1057.18 0,583.88 473.33,1057.2 1057.19,1057.2 583.87,0 1057.19,-473.32 1057.19,-1057.2 z m 21.73,0 c 0,595.88 -483.05,1078.92 -1078.92,1078.92 -595.86,0 -1078.91,-483.04 -1078.91,-1078.92 0,-595.86 483.05,-1078.91 1078.91,-1078.91 595.87,0 1078.92,483.05 1078.92,1078.91" /><path
             id="path174"
             style="fill:#1e75b8;fill-opacity:1;fill-rule:evenodd;stroke:none"
             d="m 3556.16,3354.71 c 0,-591.86 -479.8,-1071.67 -1071.67,-1071.67 -591.86,0 -1071.67,479.81 -1071.67,1071.67 0,591.88 479.81,1071.68 1071.67,1071.68 591.87,0 1071.67,-479.8 1071.67,-1071.68 z m 21.73,0 c 0,603.87 -489.53,1093.4 -1093.4,1093.4 -603.86,0 -1093.39,-489.53 -1093.39,-1093.4 0,-603.86 489.53,-1093.39 1093.39,-1093.39 603.87,0 1093.4,489.53 1093.4,1093.39" /><path
             id="path176"
             style="fill:#1d75b7;fill-opacity:1;fill-rule:evenodd;stroke:none"
             d="m 3570.65,3354.71 c 0,-599.86 -486.29,-1086.15 -1086.16,-1086.15 -599.86,0 -1086.15,486.29 -1086.15,1086.15 0,599.88 486.29,1086.16 1086.15,1086.16 599.87,0 1086.16,-486.28 1086.16,-1086.16 z m 21.72,0 c 0,611.87 -496.01,1107.88 -1107.88,1107.88 -611.86,0 -1107.88,-496.01 -1107.88,-1107.88 0,-611.86 496.02,-1107.87 1107.88,-1107.87 611.87,0 1107.88,496.01 1107.88,1107.87" /><path
             id="path178"
             style="fill:#1d75b7;fill-opacity:1;fill-rule:evenodd;stroke:none"
             d="m 3585.13,3354.71 c 0,-607.86 -492.77,-1100.63 -1100.64,-1100.63 -607.86,0 -1100.63,492.77 -1100.63,1100.63 0,607.87 492.77,1100.64 1100.63,1100.64 607.87,0 1100.64,-492.77 1100.64,-1100.64 z m 21.73,0 c 0,619.87 -502.5,1122.37 -1122.37,1122.37 -619.86,0 -1122.36,-502.5 -1122.36,-1122.37 0,-619.86 502.5,-1122.35 1122.36,-1122.35 619.87,0 1122.37,502.49 1122.37,1122.35" /><path
             id="path180"
             style="fill:#1c74b7;fill-opacity:1;fill-rule:evenodd;stroke:none"
             d="m 3599.61,3354.71 c 0,-615.86 -499.25,-1115.11 -1115.12,-1115.11 -615.86,0 -1115.11,499.25 -1115.11,1115.11 0,615.87 499.25,1115.13 1115.11,1115.13 615.87,0 1115.12,-499.26 1115.12,-1115.13 z m 21.73,0 c 0,627.87 -508.98,1136.85 -1136.85,1136.85 -627.86,0 -1136.84,-508.98 -1136.84,-1136.85 0,-627.85 508.98,-1136.83 1136.84,-1136.83 627.87,0 1136.85,508.98 1136.85,1136.83" /><path
             id="path182"
             style="fill:#1b74b7;fill-opacity:1;fill-rule:evenodd;stroke:none"
             d="m 3614.09,3354.71 c 0,-623.85 -505.73,-1129.59 -1129.6,-1129.59 -623.86,0 -1129.6,505.74 -1129.6,1129.59 0,623.87 505.74,1129.61 1129.6,1129.61 623.87,0 1129.6,-505.74 1129.6,-1129.61 z m 21.73,0 c 0,635.86 -515.47,1151.33 -1151.33,1151.33 -635.86,0 -1151.32,-515.47 -1151.32,-1151.33 0,-635.85 515.46,-1151.32 1151.32,-1151.32 635.86,0 1151.33,515.47 1151.33,1151.32" /><path
             id="path184"
             style="fill:#1b74b7;fill-opacity:1;fill-rule:evenodd;stroke:none"
             d="m 3628.58,3354.71 c 0,-631.85 -512.23,-1144.08 -1144.09,-1144.08 -631.86,0 -1144.08,512.23 -1144.08,1144.08 0,631.87 512.22,1144.09 1144.08,1144.09 631.86,0 1144.09,-512.22 1144.09,-1144.09 z m 21.72,0 c 0,643.86 -521.95,1165.81 -1165.81,1165.81 -643.85,0 -1165.8,-521.95 -1165.8,-1165.81 0,-643.85 521.95,-1165.8 1165.8,-1165.8 643.86,0 1165.81,521.95 1165.81,1165.8" /><path
             id="path186"
             style="fill:#1a74b6;fill-opacity:1;fill-rule:evenodd;stroke:none"
             d="m 3643.06,3354.71 c 0,-639.85 -518.71,-1158.56 -1158.57,-1158.56 -639.86,0 -1158.56,518.71 -1158.56,1158.56 0,639.86 518.7,1158.57 1158.56,1158.57 639.86,0 1158.57,-518.71 1158.57,-1158.57 z m 21.72,0 c 0,651.86 -528.43,1180.29 -1180.29,1180.29 -651.85,0 -1180.28,-528.43 -1180.28,-1180.29 0,-651.85 528.43,-1180.28 1180.28,-1180.28 651.86,0 1180.29,528.43 1180.29,1180.28" /><path
             id="path188"
             style="fill:#1a73b6;fill-opacity:1;fill-rule:evenodd;stroke:none"
             d="m 3657.54,3354.71 c 0,-647.85 -525.19,-1173.04 -1173.05,-1173.04 -647.85,0 -1173.04,525.19 -1173.04,1173.04 0,647.86 525.19,1173.06 1173.04,1173.06 647.86,0 1173.05,-525.2 1173.05,-1173.06 z m 21.72,0 c 0,659.86 -534.91,1194.77 -1194.77,1194.77 -659.85,0 -1194.77,-534.91 -1194.77,-1194.77 0,-659.85 534.92,-1194.76 1194.77,-1194.76 659.86,0 1194.77,534.91 1194.77,1194.76" /><path
             id="path190"
             style="fill:#1973b6;fill-opacity:1;fill-rule:evenodd;stroke:none"
             d="m 3672.02,3354.71 c 0,-655.85 -531.67,-1187.52 -1187.53,-1187.52 -655.85,0 -1187.53,531.67 -1187.53,1187.52 0,655.86 531.68,1187.54 1187.53,1187.54 655.86,0 1187.53,-531.68 1187.53,-1187.54 z m 21.73,0 c 0,667.86 -541.41,1209.26 -1209.26,1209.26 -667.85,0 -1209.25,-541.4 -1209.25,-1209.26 0,-667.84 541.4,-1209.25 1209.25,-1209.25 667.85,0 1209.26,541.41 1209.26,1209.25" /><path
             id="path192"
             style="fill:#1973b6;fill-opacity:1;fill-rule:evenodd;stroke:none"
             d="m 3686.5,3354.71 c 0,-663.85 -538.16,-1202.01 -1202.01,-1202.01 -663.85,0 -1202.01,538.16 -1202.01,1202.01 0,663.86 538.16,1202.02 1202.01,1202.02 663.85,0 1202.01,-538.16 1202.01,-1202.02 z m 21.73,0 c 0,675.86 -547.89,1223.74 -1223.74,1223.74 -675.85,0 -1223.73,-547.88 -1223.73,-1223.74 0,-675.84 547.88,-1223.73 1223.73,-1223.73 675.85,0 1223.74,547.89 1223.74,1223.73" /><path
             id="path194"
             style="fill:#1873b5;fill-opacity:1;fill-rule:evenodd;stroke:none"
             d="m 3700.99,3354.71 c 0,-671.84 -544.65,-1216.49 -1216.5,-1216.49 -671.85,0 -1216.49,544.65 -1216.49,1216.49 0,671.86 544.64,1216.5 1216.49,1216.5 671.85,0 1216.5,-544.64 1216.5,-1216.5 z m 21.72,0 c 0,683.85 -554.37,1238.22 -1238.22,1238.22 -683.84,0 -1238.21,-554.37 -1238.21,-1238.22 0,-683.84 554.37,-1238.21 1238.21,-1238.21 683.85,0 1238.22,554.37 1238.22,1238.21" /><path
             id="path196"
             style="fill:#1772b5;fill-opacity:1;fill-rule:evenodd;stroke:none"
             d="m 3715.47,3354.71 c 0,-679.84 -551.13,-1230.97 -1230.98,-1230.97 -679.85,0 -1230.97,551.13 -1230.97,1230.97 0,679.86 551.12,1230.98 1230.97,1230.98 679.85,0 1230.98,-551.12 1230.98,-1230.98 z m 21.72,0 c 0,691.85 -560.85,1252.7 -1252.7,1252.7 -691.84,0 -1252.69,-560.85 -1252.69,-1252.7 0,-691.84 560.85,-1252.69 1252.69,-1252.69 691.85,0 1252.7,560.85 1252.7,1252.69" /><path
             id="path198"
             style="fill:#1772b5;fill-opacity:1;fill-rule:evenodd;stroke:none"
             d="m 3729.95,3354.71 c 0,-687.84 -557.61,-1245.45 -1245.46,-1245.45 -687.84,0 -1245.45,557.61 -1245.45,1245.45 0,687.85 557.61,1245.47 1245.45,1245.47 687.85,0 1245.46,-557.62 1245.46,-1245.47 z m 21.73,0 c 0,699.85 -567.34,1267.19 -1267.19,1267.19 -699.84,0 -1267.18,-567.34 -1267.18,-1267.19 0,-699.83 567.34,-1267.17 1267.18,-1267.17 699.85,0 1267.19,567.34 1267.19,1267.17" /><path
             id="path200"
             style="fill:#1672b5;fill-opacity:1;fill-rule:evenodd;stroke:none"
             d="m 3744.43,3354.71 c 0,-695.84 -564.09,-1259.93 -1259.94,-1259.93 -695.84,0 -1259.94,564.09 -1259.94,1259.93 0,695.85 564.1,1259.95 1259.94,1259.95 695.85,0 1259.94,-564.1 1259.94,-1259.95 z m 21.73,0 c 0,707.85 -573.82,1281.67 -1281.67,1281.67 -707.84,0 -1281.66,-573.82 -1281.66,-1281.67 0,-707.83 573.82,-1281.66 1281.66,-1281.66 707.85,0 1281.67,573.83 1281.67,1281.66" /><path
             id="path202"
             style="fill:#1671b5;fill-opacity:1;fill-rule:evenodd;stroke:none"
             d="m 3758.92,3354.71 c 0,-703.83 -570.58,-1274.41 -1274.43,-1274.41 -703.84,0 -1274.42,570.58 -1274.42,1274.41 0,703.85 570.58,1274.43 1274.42,1274.43 703.85,0 1274.43,-570.58 1274.43,-1274.43 z m 21.72,0 c 0,715.85 -580.3,1296.15 -1296.15,1296.15 -715.84,0 -1296.14,-580.3 -1296.14,-1296.15 0,-715.83 580.3,-1296.14 1296.14,-1296.14 715.85,0 1296.15,580.31 1296.15,1296.14" /><path
             id="path204"
             style="fill:#1571b4;fill-opacity:1;fill-rule:evenodd;stroke:none"
             d="m 3773.39,3354.71 c 0,-711.83 -577.05,-1288.89 -1288.9,-1288.89 -711.84,0 -1288.9,577.06 -1288.9,1288.89 0,711.85 577.06,1288.91 1288.9,1288.91 711.85,0 1288.9,-577.06 1288.9,-1288.91 z m 21.73,0 c 0,723.84 -586.79,1310.63 -1310.63,1310.63 -723.83,0 -1310.62,-586.79 -1310.62,-1310.63 0,-723.83 586.79,-1310.62 1310.62,-1310.62 723.84,0 1310.63,586.79 1310.63,1310.62" /><path
             id="path206"
             style="fill:#1571b4;fill-opacity:1;fill-rule:evenodd;stroke:none"
             d="m 3787.88,3354.71 c 0,-719.83 -583.54,-1303.38 -1303.39,-1303.38 -719.83,0 -1303.38,583.55 -1303.38,1303.38 0,719.85 583.55,1303.39 1303.38,1303.39 719.85,0 1303.39,-583.54 1303.39,-1303.39 z m 21.72,0 c 0,731.84 -593.27,1325.11 -1325.11,1325.11 -731.83,0 -1325.11,-593.27 -1325.11,-1325.11 0,-731.83 593.28,-1325.1 1325.11,-1325.1 731.84,0 1325.11,593.27 1325.11,1325.1" /><path
             id="path208"
             style="fill:#1471b4;fill-opacity:1;fill-rule:evenodd;stroke:none"
             d="m 3802.36,3354.71 c 0,-727.83 -590.03,-1317.86 -1317.87,-1317.86 -727.83,0 -1317.86,590.03 -1317.86,1317.86 0,727.84 590.03,1317.87 1317.86,1317.87 727.84,0 1317.87,-590.03 1317.87,-1317.87 z m 21.73,0 c 0,739.84 -599.76,1339.6 -1339.6,1339.6 -739.83,0 -1339.59,-599.76 -1339.59,-1339.6 0,-739.83 599.76,-1339.58 1339.59,-1339.58 739.84,0 1339.6,599.75 1339.6,1339.58" /><path
             id="path210"
             style="fill:#1470b4;fill-opacity:1;fill-rule:evenodd;stroke:none"
             d="m 3816.84,3354.71 c 0,-735.83 -596.51,-1332.34 -1332.35,-1332.34 -735.83,0 -1332.35,596.51 -1332.35,1332.34 0,735.84 596.52,1332.36 1332.35,1332.36 735.84,0 1332.35,-596.52 1332.35,-1332.36 z m 21.73,0 c 0,747.84 -606.24,1354.08 -1354.08,1354.08 -747.83,0 -1354.07,-606.24 -1354.07,-1354.08 0,-747.83 606.24,-1354.07 1354.07,-1354.07 747.84,0 1354.08,606.24 1354.08,1354.07" /><path
             id="path212"
             style="fill:#1370b3;fill-opacity:1;fill-rule:evenodd;stroke:none"
             d="m 3831.32,3354.71 c 0,-743.83 -602.99,-1346.82 -1346.83,-1346.82 -743.83,0 -1346.83,602.99 -1346.83,1346.82 0,743.84 603,1346.84 1346.83,1346.84 743.84,0 1346.83,-603 1346.83,-1346.84 z m 21.73,0 c 0,755.84 -612.72,1368.56 -1368.56,1368.56 -755.83,0 -1368.55,-612.72 -1368.55,-1368.56 0,-755.83 612.72,-1368.55 1368.55,-1368.55 755.84,0 1368.56,612.72 1368.56,1368.55" /><path
             id="path214"
             style="fill:#1270b3;fill-opacity:1;fill-rule:evenodd;stroke:none"
             d="m 3845.81,3354.71 c 0,-751.83 -609.48,-1361.31 -1361.32,-1361.31 -751.83,0 -1361.31,609.48 -1361.31,1361.31 0,751.84 609.48,1361.32 1361.31,1361.32 751.84,0 1361.32,-609.48 1361.32,-1361.32 z m 21.72,0 c 0,763.84 -619.21,1383.04 -1383.04,1383.04 -763.83,0 -1383.03,-619.2 -1383.03,-1383.04 0,-763.82 619.2,-1383.03 1383.03,-1383.03 763.83,0 1383.04,619.21 1383.04,1383.03" /><path
             id="path216"
             style="fill:#1270b3;fill-opacity:1;fill-rule:evenodd;stroke:none"
             d="m 3860.29,3354.71 c 0,-759.82 -615.97,-1375.79 -1375.8,-1375.79 -759.83,0 -1375.79,615.97 -1375.79,1375.79 0,759.84 615.96,1375.8 1375.79,1375.8 759.83,0 1375.8,-615.96 1375.8,-1375.8 z m 21.73,0 c 0,771.84 -625.7,1397.53 -1397.53,1397.53 -771.83,0 -1397.52,-625.69 -1397.52,-1397.53 0,-771.82 625.69,-1397.51 1397.52,-1397.51 771.83,0 1397.53,625.69 1397.53,1397.51" /><path
             id="path218"
             style="fill:#116fb3;fill-opacity:1;fill-rule:evenodd;stroke:none"
             d="m 3874.77,3354.71 c 0,-767.82 -622.45,-1390.27 -1390.28,-1390.27 -767.83,0 -1390.28,622.45 -1390.28,1390.27 0,767.84 622.45,1390.29 1390.28,1390.29 767.83,0 1390.28,-622.45 1390.28,-1390.29 z m 21.73,0 c 0,779.83 -632.18,1412.01 -1412.01,1412.01 -779.82,0 -1411.99,-632.18 -1411.99,-1412.01 0,-779.82 632.17,-1411.99 1411.99,-1411.99 779.83,0 1412.01,632.17 1412.01,1411.99" /><path
             id="path220"
             style="fill:#116fb3;fill-opacity:1;fill-rule:evenodd;stroke:none"
             d="m 3889.25,3354.71 c 0,-775.82 -628.93,-1404.75 -1404.76,-1404.75 -775.83,0 -1404.76,628.93 -1404.76,1404.75 0,775.83 628.93,1404.77 1404.76,1404.77 775.83,0 1404.76,-628.94 1404.76,-1404.77 z m 21.73,0 c 0,787.83 -638.66,1426.49 -1426.49,1426.49 -787.82,0 -1426.48,-638.66 -1426.48,-1426.49 0,-787.82 638.66,-1426.48 1426.48,-1426.48 787.83,0 1426.49,638.66 1426.49,1426.48" /><path
             id="path222"
             style="fill:#106fb2;fill-opacity:1;fill-rule:evenodd;stroke:none"
             d="m 3903.73,3354.71 c 0,-783.82 -635.41,-1419.24 -1419.24,-1419.24 -783.82,0 -1419.24,635.42 -1419.24,1419.24 0,783.83 635.42,1419.25 1419.24,1419.25 783.83,0 1419.24,-635.42 1419.24,-1419.25 z m 21.73,0 c 0,795.83 -645.14,1440.97 -1440.97,1440.97 -795.82,0 -1440.96,-645.14 -1440.96,-1440.97 0,-795.82 645.14,-1440.96 1440.96,-1440.96 795.83,0 1440.97,645.14 1440.97,1440.96" /><path
             id="path224"
             style="fill:#106eb2;fill-opacity:1;fill-rule:evenodd;stroke:none"
             d="m 3918.22,3354.71 c 0,-791.82 -641.9,-1433.72 -1433.73,-1433.72 -791.82,0 -1433.72,641.9 -1433.72,1433.72 0,791.83 641.9,1433.73 1433.72,1433.73 791.83,0 1433.73,-641.9 1433.73,-1433.73 z m 21.72,0 c 0,803.83 -651.63,1455.45 -1455.45,1455.45 -803.82,0 -1455.44,-651.62 -1455.44,-1455.45 0,-803.82 651.62,-1455.44 1455.44,-1455.44 803.82,0 1455.45,651.62 1455.45,1455.44" /><path
             id="path226"
             style="fill:#0f6eb2;fill-opacity:1;fill-rule:evenodd;stroke:none"
             d="m 3932.7,3354.71 c 0,-799.82 -648.39,-1448.2 -1448.21,-1448.2 -799.82,0 -1448.2,648.38 -1448.2,1448.2 0,799.83 648.38,1448.21 1448.2,1448.21 799.82,0 1448.21,-648.38 1448.21,-1448.21 z m 21.72,0 c 0,811.83 -658.11,1469.93 -1469.93,1469.93 -811.82,0 -1469.92,-658.1 -1469.92,-1469.93 0,-811.81 658.1,-1469.92 1469.92,-1469.92 811.82,0 1469.93,658.11 1469.93,1469.92" /><path
             id="path228"
             style="fill:#0f6eb2;fill-opacity:1;fill-rule:evenodd;stroke:none"
             d="m 3947.18,3354.71 c 0,-807.82 -654.87,-1462.68 -1462.69,-1462.68 -807.82,0 -1462.69,654.86 -1462.69,1462.68 0,807.83 654.87,1462.7 1462.69,1462.7 807.82,0 1462.69,-654.87 1462.69,-1462.7 z m 21.72,0 c 0,819.83 -664.59,1484.42 -1484.41,1484.42 -819.81,0 -1484.41,-664.59 -1484.41,-1484.42 0,-819.81 664.6,-1484.41 1484.41,-1484.41 819.82,0 1484.41,664.6 1484.41,1484.41" /><path
             id="path230"
             style="fill:#0e6eb2;fill-opacity:1;fill-rule:evenodd;stroke:none"
             d="m 3961.66,3354.71 c 0,-815.81 -661.35,-1477.16 -1477.17,-1477.16 -815.81,0 -1477.17,661.35 -1477.17,1477.16 0,815.83 661.36,1477.18 1477.17,1477.18 815.82,0 1477.17,-661.35 1477.17,-1477.18 z m 21.73,0 c 0,827.82 -671.08,1498.9 -1498.9,1498.9 -827.81,0 -1498.888,-671.08 -1498.888,-1498.9 0,-827.81 671.078,-1498.89 1498.888,-1498.89 827.82,0 1498.9,671.08 1498.9,1498.89" /><path
             id="path232"
             style="fill:#0d6db1;fill-opacity:1;fill-rule:evenodd;stroke:none"
             d="m 3976.15,3354.71 c 0,-823.81 -667.84,-1491.65 -1491.66,-1491.65 -823.81,0 -1491.65,667.84 -1491.65,1491.65 0,823.82 667.84,1491.66 1491.65,1491.66 823.82,0 1491.66,-667.84 1491.66,-1491.66 z m 21.72,0 c 0,835.82 -677.56,1513.38 -1513.38,1513.38 -835.81,0 -1513.373,-677.56 -1513.373,-1513.38 0,-835.81 677.563,-1513.37 1513.373,-1513.37 835.82,0 1513.38,677.56 1513.38,1513.37" /><path
             id="path234"
             style="fill:#0d6db1;fill-opacity:1;fill-rule:evenodd;stroke:none"
             d="m 3990.63,3354.71 c 0,-831.81 -674.32,-1506.13 -1506.14,-1506.13 -831.81,0 -1506.131,674.32 -1506.131,1506.13 0,831.82 674.321,1506.14 1506.131,1506.14 831.82,0 1506.14,-674.32 1506.14,-1506.14 z m 21.72,0 c 0,843.82 -684.05,1527.86 -1527.86,1527.86 -843.81,0 -1527.853,-684.04 -1527.853,-1527.86 0,-843.8 684.043,-1527.85 1527.853,-1527.85 843.81,0 1527.86,684.05 1527.86,1527.85" /><path
             id="path236"
             style="fill:#0c6db1;fill-opacity:1;fill-rule:evenodd;stroke:none"
             d="m 4005.11,3354.71 c 0,-839.8 -680.81,-1520.61 -1520.62,-1520.61 -839.81,0 -1520.615,680.81 -1520.615,1520.61 0,839.82 680.805,1520.62 1520.615,1520.62 839.81,0 1520.62,-680.8 1520.62,-1520.62 z m 21.72,0 c 0,851.82 -690.53,1542.34 -1542.34,1542.34 -851.81,0 -1542.334,-690.52 -1542.334,-1542.34 0,-851.8 690.524,-1542.33 1542.334,-1542.33 851.81,0 1542.34,690.53 1542.34,1542.33" /><path
             id="path238"
             style="fill:#0c6db1;fill-opacity:1;fill-rule:evenodd;stroke:none"
             d="m 4019.59,3354.71 c 0,-847.8 -687.29,-1535.09 -1535.1,-1535.09 -847.81,0 -1535.095,687.29 -1535.095,1535.09 0,847.82 687.285,1535.11 1535.095,1535.11 847.81,0 1535.1,-687.29 1535.1,-1535.11 z m 21.73,0 c 0,859.81 -697.02,1556.83 -1556.83,1556.83 -859.8,0 -1556.818,-697.02 -1556.818,-1556.83 0,-859.8 697.018,-1556.82 1556.818,-1556.82 859.81,0 1556.83,697.02 1556.83,1556.82" /><path
             id="path240"
             style="fill:#0b6cb0;fill-opacity:1;fill-rule:evenodd;stroke:none"
             d="m 4034.07,3354.71 c 0,-855.8 -693.77,-1549.57 -1549.58,-1549.57 -855.81,0 -1549.58,693.77 -1549.58,1549.57 0,855.82 693.77,1549.59 1549.58,1549.59 855.81,0 1549.58,-693.77 1549.58,-1549.59 z m 21.73,0 c 0,867.81 -703.5,1571.31 -1571.31,1571.31 -867.8,0 -1571.299,-703.5 -1571.299,-1571.31 0,-867.8 703.499,-1571.3 1571.299,-1571.3 867.81,0 1571.31,703.5 1571.31,1571.3" /><path
             id="path242"
             style="fill:#0b6cb0;fill-opacity:1;fill-rule:evenodd;stroke:none"
             d="m 4048.56,3354.71 c 0,-863.8 -700.26,-1564.05 -1564.07,-1564.05 -863.8,0 -1564.056,700.25 -1564.056,1564.05 0,863.81 700.256,1564.07 1564.056,1564.07 863.81,0 1564.07,-700.26 1564.07,-1564.07 z m 21.72,0 c 0,875.81 -709.98,1585.79 -1585.79,1585.79 -875.8,0 -1585.783,-709.98 -1585.783,-1585.79 0,-875.8 709.983,-1585.78 1585.783,-1585.78 875.81,0 1585.79,709.98 1585.79,1585.78" /><path
             id="path244"
             style="fill:#0a6cb0;fill-opacity:1;fill-rule:evenodd;stroke:none"
             d="m 4063.04,3354.71 c 0,-871.8 -706.74,-1578.54 -1578.55,-1578.54 -871.8,0 -1578.541,706.74 -1578.541,1578.54 0,871.81 706.741,1578.55 1578.541,1578.55 871.81,0 1578.55,-706.74 1578.55,-1578.55 z m 21.72,0 c 0,883.81 -716.46,1600.27 -1600.27,1600.27 -883.8,0 -1600.263,-716.46 -1600.263,-1600.27 0,-883.8 716.463,-1600.26 1600.263,-1600.26 883.81,0 1600.27,716.46 1600.27,1600.26" /><path
             id="path246"
             style="fill:#0a6cb0;fill-opacity:1;fill-rule:evenodd;stroke:none"
             d="m 4077.52,3354.71 c 0,-879.8 -713.22,-1593.02 -1593.03,-1593.02 -879.8,0 -1593.021,713.22 -1593.021,1593.02 0,879.81 713.221,1593.03 1593.021,1593.03 879.81,0 1593.03,-713.22 1593.03,-1593.03 z m 21.72,0 c 0,891.81 -722.94,1614.76 -1614.75,1614.76 -891.8,0 -1614.748,-722.95 -1614.748,-1614.76 0,-891.8 722.948,-1614.75 1614.748,-1614.75 891.81,0 1614.75,722.95 1614.75,1614.75" /><path
             id="path248"
             style="fill:#096bb0;fill-opacity:1;fill-rule:evenodd;stroke:none"
             d="m 4092,3354.71 c 0,-887.8 -719.7,-1607.5 -1607.51,-1607.5 -887.8,0 -1607.506,719.7 -1607.506,1607.5 0,887.81 719.706,1607.51 1607.506,1607.51 887.81,0 1607.51,-719.7 1607.51,-1607.51 z m 21.73,0 c 0,899.81 -729.44,1629.24 -1629.24,1629.24 -899.79,0 -1629.228,-729.43 -1629.228,-1629.24 0,-899.79 729.438,-1629.23 1629.228,-1629.23 899.8,0 1629.24,729.44 1629.24,1629.23" /><path
             id="path250"
             style="fill:#086baf;fill-opacity:1;fill-rule:evenodd;stroke:none"
             d="m 4106.48,3354.71 c 0,-895.8 -726.18,-1621.98 -1621.99,-1621.98 -895.8,0 -1621.986,726.18 -1621.986,1621.98 0,895.81 726.186,1622 1621.986,1622 895.81,0 1621.99,-726.19 1621.99,-1622 z m 21.73,0 c 0,907.81 -735.92,1643.72 -1643.72,1643.72 -907.79,0 -1643.713,-735.91 -1643.713,-1643.72 0,-907.79 735.923,-1643.71 1643.713,-1643.71 907.8,0 1643.72,735.92 1643.72,1643.71" /><path
             id="path252"
             style="fill:#086baf;fill-opacity:1;fill-rule:evenodd;stroke:none"
             d="m 4120.96,3354.71 c 0,-903.79 -732.67,-1636.46 -1636.47,-1636.46 -903.79,0 -1636.47,732.67 -1636.47,1636.46 0,903.81 732.68,1636.48 1636.47,1636.48 903.8,0 1636.47,-732.67 1636.47,-1636.48 z m 21.73,0 c 0,915.81 -742.4,1658.2 -1658.2,1658.2 -915.79,0 -1658.193,-742.39 -1658.193,-1658.2 0,-915.79 742.403,-1658.19 1658.193,-1658.19 915.8,0 1658.2,742.4 1658.2,1658.19" /><path
             id="path254"
             style="fill:#076aaf;fill-opacity:1;fill-rule:evenodd;stroke:none"
             d="m 4135.45,3354.71 c 0,-911.79 -739.16,-1650.95 -1650.96,-1650.95 -911.79,0 -1650.951,739.16 -1650.951,1650.95 0,911.81 739.161,1650.96 1650.951,1650.96 911.8,0 1650.96,-739.15 1650.96,-1650.96 z m 21.72,0 c 0,923.8 -748.88,1672.68 -1672.68,1672.68 -923.79,0 -1672.674,-748.88 -1672.674,-1672.68 0,-923.79 748.884,-1672.67 1672.674,-1672.67 923.8,0 1672.68,748.88 1672.68,1672.67" /><path
             id="path256"
             style="fill:#076aaf;fill-opacity:1;fill-rule:evenodd;stroke:none"
             d="m 4149.93,3354.71 c 0,-919.79 -745.64,-1665.43 -1665.44,-1665.43 -919.79,0 -1665.431,745.64 -1665.431,1665.43 0,919.8 745.641,1665.44 1665.431,1665.44 919.8,0 1665.44,-745.64 1665.44,-1665.44 z m 21.73,0 c 0,931.8 -755.37,1687.17 -1687.17,1687.17 -931.79,0 -1687.158,-755.37 -1687.158,-1687.17 0,-931.79 755.368,-1687.15 1687.158,-1687.15 931.8,0 1687.17,755.36 1687.17,1687.15" /><path
             id="path258"
             style="fill:#066aae;fill-opacity:1;fill-rule:evenodd;stroke:none"
             d="m 4164.41,3354.71 c 0,-927.79 -752.12,-1679.91 -1679.92,-1679.91 -927.79,0 -1679.916,752.12 -1679.916,1679.91 0,927.8 752.126,1679.93 1679.916,1679.93 927.8,0 1679.92,-752.13 1679.92,-1679.93 z m 21.73,0 c 0,939.8 -761.85,1701.65 -1701.65,1701.65 -939.79,0 -1701.638,-761.85 -1701.638,-1701.65 0,-939.78 761.848,-1701.64 1701.638,-1701.64 939.8,0 1701.65,761.86 1701.65,1701.64" /><path
             id="path260"
             style="fill:#066aae;fill-opacity:1;fill-rule:evenodd;stroke:none"
             d="m 4178.89,3354.71 c 0,-935.78 -758.6,-1694.39 -1694.4,-1694.39 -935.79,0 -1694.396,758.61 -1694.396,1694.39 0,935.8 758.606,1694.41 1694.396,1694.41 935.8,0 1694.4,-758.61 1694.4,-1694.41 z m 21.73,0 c 0,947.79 -768.34,1716.13 -1716.13,1716.13 -947.79,0 -1716.119,-768.34 -1716.119,-1716.13 0,-947.78 768.329,-1716.12 1716.119,-1716.12 947.79,0 1716.13,768.34 1716.13,1716.12" /><path
             id="path262"
             style="fill:#0569ae;fill-opacity:1;fill-rule:evenodd;stroke:none"
             d="m 4193.38,3354.71 c 0,-943.78 -765.09,-1708.88 -1708.89,-1708.88 -943.79,0 -1708.881,765.1 -1708.881,1708.88 0,943.8 765.091,1708.89 1708.881,1708.89 943.8,0 1708.89,-765.09 1708.89,-1708.89 z m 21.72,0 c 0,955.79 -774.82,1730.61 -1730.61,1730.61 -955.79,0 -1730.603,-774.82 -1730.603,-1730.61 0,-955.78 774.813,-1730.6 1730.603,-1730.6 955.79,0 1730.61,774.82 1730.61,1730.6" /><path
             id="path264"
             style="fill:#0469ae;fill-opacity:1;fill-rule:evenodd;stroke:none"
             d="m 4207.86,3354.71 c 0,-951.78 -771.58,-1723.36 -1723.37,-1723.36 -951.79,0 -1723.361,771.58 -1723.361,1723.36 0,951.79 771.571,1723.37 1723.361,1723.37 951.79,0 1723.37,-771.58 1723.37,-1723.37 z m 21.72,0 c 0,963.79 -781.3,1745.09 -1745.09,1745.09 -963.78,0 -1745.084,-781.3 -1745.084,-1745.09 0,-963.78 781.304,-1745.08 1745.084,-1745.08 963.79,0 1745.09,781.3 1745.09,1745.08" /><path
             id="path266"
             style="fill:#0469ae;fill-opacity:1;fill-rule:evenodd;stroke:none"
             d="m 4222.34,3354.71 c 0,-959.78 -778.06,-1737.84 -1737.85,-1737.84 -959.78,0 -1737.845,778.06 -1737.845,1737.84 0,959.79 778.065,1737.85 1737.845,1737.85 959.79,0 1737.85,-778.06 1737.85,-1737.85 z m 21.72,0 c 0,971.79 -787.78,1759.58 -1759.57,1759.58 -971.78,0 -1759.564,-787.79 -1759.564,-1759.58 0,-971.78 787.784,-1759.56 1759.564,-1759.56 971.79,0 1759.57,787.78 1759.57,1759.56" /><path
             id="path268"
             style="fill:#0369ad;fill-opacity:1;fill-rule:evenodd;stroke:none"
             d="m 4236.82,3354.71 c 0,-967.78 -784.54,-1752.32 -1752.33,-1752.32 -967.78,0 -1752.326,784.54 -1752.326,1752.32 0,967.79 784.546,1752.34 1752.326,1752.34 967.79,0 1752.33,-784.55 1752.33,-1752.34 z m 21.73,0 c 0,979.79 -794.28,1774.06 -1774.06,1774.06 -979.78,0 -1774.049,-794.27 -1774.049,-1774.06 0,-979.78 794.269,-1774.05 1774.049,-1774.05 979.78,0 1774.06,794.27 1774.06,1774.05" /><path
             id="path270"
             style="fill:#0368ad;fill-opacity:1;fill-rule:evenodd;stroke:none"
             d="m 4251.3,3354.71 c 0,-975.78 -791.02,-1766.8 -1766.81,-1766.8 -975.78,0 -1766.806,791.02 -1766.806,1766.8 0,975.79 791.026,1766.82 1766.806,1766.82 975.79,0 1766.81,-791.03 1766.81,-1766.82 z m 21.73,0 c 0,987.79 -800.76,1788.54 -1788.54,1788.54 -987.78,0 -1788.529,-800.75 -1788.529,-1788.54 0,-987.77 800.749,-1788.53 1788.529,-1788.53 987.78,0 1788.54,800.76 1788.54,1788.53" /><path
             id="path272"
             style="fill:#0268ad;fill-opacity:1;fill-rule:evenodd;stroke:none"
             d="m 4265.79,3354.71 c 0,-983.77 -797.52,-1781.29 -1781.3,-1781.29 -983.78,0 -1781.291,797.52 -1781.291,1781.29 0,983.79 797.511,1781.3 1781.291,1781.3 983.78,0 1781.3,-797.51 1781.3,-1781.3 z m 21.72,0 c 0,995.79 -807.24,1803.02 -1803.02,1803.02 -995.78,0 -1803.013,-807.23 -1803.013,-1803.02 0,-995.77 807.233,-1803.01 1803.013,-1803.01 995.78,0 1803.02,807.24 1803.02,1803.01" /><path
             id="path274"
             style="fill:#0268ad;fill-opacity:1;fill-rule:evenodd;stroke:none"
             d="m 4280.27,3354.71 c 0,-991.77 -804,-1795.77 -1795.78,-1795.77 -991.78,0 -1795.771,804 -1795.771,1795.77 0,991.79 803.991,1795.78 1795.771,1795.78 991.78,0 1795.78,-803.99 1795.78,-1795.78 z m 21.72,0 c 0,1003.78 -813.72,1817.5 -1817.5,1817.5 -1003.77,0 -1817.494,-813.72 -1817.494,-1817.5 0,-1003.77 813.724,-1817.49 1817.494,-1817.49 1003.78,0 1817.5,813.72 1817.5,1817.49" /><path
             id="path276"
             style="fill:#0168ac;fill-opacity:1;fill-rule:evenodd;stroke:none"
             d="m 4294.75,3354.71 c 0,-999.77 -810.48,-1810.25 -1810.26,-1810.25 -999.77,0 -1810.256,810.48 -1810.256,1810.25 0,999.78 810.486,1810.27 1810.256,1810.27 999.78,0 1810.26,-810.49 1810.26,-1810.27 z m 21.72,0 c 0,1011.78 -820.2,1831.99 -1831.98,1831.99 -1011.77,0 -1831.978,-820.21 -1831.978,-1831.99 0,-1011.77 820.208,-1831.98 1831.978,-1831.98 1011.78,0 1831.98,820.21 1831.98,1831.98" /><path
             id="path278"
             style="fill:#0167ac;fill-opacity:1;fill-rule:evenodd;stroke:none"
             d="m 4309.23,3354.71 c 0,-1007.77 -816.96,-1824.73 -1824.74,-1824.73 -1007.77,0 -1824.736,816.96 -1824.736,1824.73 0,1007.78 816.966,1824.75 1824.736,1824.75 1007.78,0 1824.74,-816.97 1824.74,-1824.75 z m 21.73,0 c 0,1019.78 -826.69,1846.47 -1846.47,1846.47 -1019.77,0 -1846.459,-826.69 -1846.459,-1846.47 0,-1019.76 826.689,-1846.46 1846.459,-1846.46 1019.78,0 1846.47,826.7 1846.47,1846.46" /><path
             id="path280"
             style="fill:#0067ac;fill-opacity:1;fill-rule:evenodd;stroke:none"
             d="m 4323.71,3354.71 c 0,-1015.76 -823.44,-1839.21 -1839.22,-1839.21 -1015.77,0 -1839.217,823.45 -1839.217,1839.21 0,1015.78 823.447,1839.23 1839.217,1839.23 1015.78,0 1839.22,-823.45 1839.22,-1839.23 z m 14.49,0 c 0,1023.78 -829.93,1853.71 -1853.71,1853.71 -1023.77,0 -1853.697,-829.93 -1853.697,-1853.71 0,-1023.76 829.927,-1853.69 1853.697,-1853.69 1023.78,0 1853.71,829.93 1853.71,1853.69" /></g></g></g></g></svg>