<?xml version="1.0" encoding="UTF-8" standalone="no"?>
<!-- Created with Inkscape (http://www.inkscape.org/) -->

<svg
   version="1.1"
   id="svg1"
   width="224.42667"
   height="65.653336"
   viewBox="0 0 224.42667 65.653336"
   sodipodi:docname="c640684a27771f209860e1621d16696f8bf7Sk__Участник-block-ru.eps"
   xmlns:inkscape="http://www.inkscape.org/namespaces/inkscape"
   xmlns:sodipodi="http://sodipodi.sourceforge.net/DTD/sodipodi-0.dtd"
   xmlns="http://www.w3.org/2000/svg"
   xmlns:svg="http://www.w3.org/2000/svg">
  <defs
     id="defs1" />
  <sodipodi:namedview
     id="namedview1"
     pagecolor="#ffffff"
     bordercolor="#000000"
     borderopacity="0.25"
     inkscape:showpageshadow="2"
     inkscape:pageopacity="0.0"
     inkscape:pagecheckerboard="0"
     inkscape:deskcolor="#d1d1d1">
    <inkscape:page
       x="0"
       y="0"
       inkscape:label="1"
       id="page1"
       width="224.42667"
       height="65.653336"
       margin="0"
       bleed="0" />
  </sodipodi:namedview>
  <g
     id="g1"
     inkscape:groupmode="layer"
     inkscape:label="1">
    <g
       id="group-R5">
      <path
         id="path2"
         d="M 123.102,492.406 C 55.1133,492.406 0,437.293 0,369.305 V 123.102 C 0,55.1133 55.1133,0 123.102,0 h 246.203 c 67.984,0 123.101,55.1133 123.101,123.102 V 492.406 H 123.102"
         style="fill:#9cd747;fill-opacity:1;fill-rule:nonzero;stroke:none"
         transform="matrix(0.13333333,0,0,-0.13333333,0,65.653333)" />
      <path
         id="path3"
         d="m 134.582,295.781 c -4.027,17.614 13.547,33.192 36.27,33.192 20.472,0 40.992,-4.59 48.8,-33.129 h 26.243 v -43.567 c -32.719,26.899 -103.653,10.024 -111.313,43.504 z m 272.305,12.059 h -59.121 l -56.243,-61.594 v 123.059 h -45.628 v -29.817 c -1.489,1.926 -3.059,3.832 -4.821,5.696 -16.59,17.566 -40.5,26.472 -71.062,26.472 -35.348,0 -55.449,-15.82 -66.086,-29.09 -13.2112,-16.472 -19.1057,-38.957 -15.0237,-57.273 10.5704,-47.43 54.5817,-55.004 86.9067,-59.207 25.527,-3.32 49.945,-7.957 49.293,-30.703 -0.672,-23.61 -27.286,-29.414 -44.754,-29.414 -45.496,0 -47.035,33.625 -47.035,33.625 H 84.3828 c 0.7149,-12.625 4.5352,-32.899 20.0782,-50.301 17.023,-19.059 42.559,-28.723 75.887,-28.723 25.57,0 48.855,8.332 65.547,23.121 v -20.328 h 45.628 v 58.09 l 16.149,17.664 46.094,-75.754 h 53.105 l -67.07,110.95 67.086,73.527"
         style="fill:#404c4f;fill-opacity:1;fill-rule:nonzero;stroke:none"
         transform="matrix(0.13333333,0,0,-0.13333333,0,65.653333)" />
      <path
         id="path4"
         d="m 608.539,154.164 c 3.066,-1.023 6.641,-1.531 10.727,-1.531 5.109,0 9.195,1.531 12.261,4.597 3.067,3.067 5.11,7.149 6.129,11.747 l -64.875,137.414 h 43.164 l 41.633,-98.59 36.524,98.59 h 41.121 L 676.734,171.02 c -7.664,-17.879 -15.578,-31.161 -24.261,-39.586 -8.688,-8.688 -18.137,-13.028 -28.61,-13.028 -3.574,0 -6.383,0 -8.683,0.512 -2.551,0.254 -4.594,0.766 -6.383,1.277 l -4.856,1.532 c -1.273,0.511 -2.55,1.019 -3.828,1.277 v 34.734 c 2.297,-1.531 5.106,-2.808 8.426,-3.574"
         style="fill:#404c4f;fill-opacity:1;fill-rule:nonzero;stroke:none"
         transform="matrix(0.13333333,0,0,-0.13333333,0,65.653333)" />
      <path
         id="path5"
         d="m 805.543,174.598 c -2.555,-0.766 -5.363,-1.278 -8.43,-2.043 -3.066,-0.512 -6.386,-1.024 -9.707,-1.278 -3.32,-0.511 -6.64,-0.511 -9.707,-0.511 -7.914,0 -14.554,0.765 -20.687,2.043 -5.871,1.535 -10.981,3.578 -15.067,6.64 -4.086,3.067 -7.152,7.153 -9.195,12.262 -2.043,4.852 -3.066,10.98 -3.066,18.133 v 49.039 h 35.246 v -42.145 c 0,-3.828 0.511,-7.148 1.535,-9.445 0.765,-2.559 2.297,-4.602 4.34,-6.133 2.043,-1.531 4.343,-2.555 7.406,-3.066 3.066,-0.508 6.641,-0.766 10.73,-0.766 6.129,0 10.727,0.512 14.301,1.535 3.574,1.274 6.387,2.551 8.43,3.828 v 56.192 h 35.246 V 123.004 h -35.246 v 53.637 c -1.531,-0.508 -3.574,-1.278 -6.129,-2.043"
         style="fill:#404c4f;fill-opacity:1;fill-rule:nonzero;stroke:none"
         transform="matrix(0.13333333,0,0,-0.13333333,0,65.653333)" />
      <path
         id="path6"
         d="m 940.914,186.348 c -2.301,-1.024 -5.109,-2.047 -8.684,-2.555 l -9.453,-1.789 c -4.086,-0.766 -7.66,-1.531 -10.726,-2.555 -3.063,-1.019 -5.617,-2.297 -7.66,-3.832 -2.043,-1.785 -3.578,-3.832 -4.598,-6.129 -1.023,-2.297 -1.531,-5.109 -1.531,-8.683 0,-2.809 0.508,-5.364 1.273,-7.407 1.024,-2.3 2.301,-3.832 4.086,-5.363 1.535,-1.277 3.32,-2.555 5.367,-3.066 2.297,-0.766 4.598,-1.02 7.153,-1.02 1.273,0 3.062,0.254 5.105,0.512 2.043,0.254 4.086,0.766 6.641,1.531 2.301,1.024 4.597,2.043 6.898,3.574 2.297,1.278 4.34,3.321 6.129,5.622 2.043,2.296 3.574,5.109 4.598,8.683 1.019,3.32 1.789,7.149 1.789,11.746 v 13.793 c -2.047,-1.277 -4.344,-2.297 -6.387,-3.062 z m 42.399,-46.489 c 0.253,-2.55 1.019,-4.851 1.785,-6.129 0.769,-1.785 1.535,-2.808 2.554,-3.574 1.024,-0.765 1.789,-1.277 3.067,-1.535 v -5.617 h -39.078 l -2.043,6.387 c -1.024,2.554 -1.278,5.617 -1.278,9.449 l -7.918,-7.918 c -2.808,-2.301 -5.617,-4.344 -8.937,-6.129 -3.324,-1.789 -6.899,-3.32 -11.238,-4.344 -4.344,-1.019 -9.454,-1.531 -15.329,-1.531 -6.128,0 -11.746,0.766 -16.855,2.555 -5.109,1.789 -9.449,4.597 -13.281,7.918 -3.574,3.574 -6.641,7.918 -8.684,13.281 -2.043,5.109 -3.066,11.234 -3.066,18.133 0,5.621 0.769,10.726 2.554,15.582 1.789,4.851 4.344,8.937 7.407,12.511 3.32,3.579 7.152,6.641 11.75,8.942 4.597,2.555 9.707,4.086 15.582,4.851 l 34.48,5.11 c 1.274,0.258 2.555,0.258 4.086,0.765 1.531,0.258 2.809,0.766 4.086,1.789 1.277,0.766 2.297,1.79 3.063,3.063 0.769,1.535 1.281,3.32 1.281,5.621 0,2.301 -0.512,4.344 -1.024,6.129 -0.765,2.043 -2.043,3.578 -3.578,4.855 -1.785,1.532 -3.828,2.551 -6.64,3.317 -2.809,0.765 -6.383,1.023 -10.469,1.023 -4.856,0 -8.43,-0.511 -11.238,-1.277 -3.067,-1.02 -5.364,-2.555 -6.899,-4.086 -1.785,-1.789 -3.062,-3.832 -3.832,-5.875 l -1.531,-7.406 h -35.246 c 0,1.531 0.258,3.832 0.765,6.894 0.512,2.813 1.536,6.133 3.067,9.707 1.277,3.321 3.574,6.899 6.129,10.473 2.554,3.574 5.875,6.895 10.472,9.961 4.086,2.809 9.45,5.363 15.582,7.152 6.129,1.785 13.282,2.809 21.961,3.063 12.008,0 21.969,-1.278 29.629,-3.574 7.406,-2.555 13.281,-5.875 17.625,-9.707 4.086,-4.086 6.895,-8.426 8.43,-13.282 1.273,-4.851 2.043,-9.707 2.043,-14.558 v -72.024 c 0,-4.09 0.254,-7.406 0.766,-9.965"
         style="fill:#404c4f;fill-opacity:1;fill-rule:nonzero;stroke:none"
         transform="matrix(0.13333333,0,0,-0.13333333,0,65.653333)" />
      <path
         id="path7"
         d="m 1081.85,220.316 c -1.02,2.809 -2.55,5.11 -4.34,6.895 -2.04,2.043 -4.34,3.32 -6.89,4.344 -2.81,0.765 -6.13,1.277 -9.97,1.277 -5.87,0 -10.47,-1.277 -14.04,-4.086 -3.58,-2.812 -6.39,-6.133 -8.18,-10.219 -2.04,-4.343 -3.06,-8.937 -3.83,-13.793 -0.51,-4.851 -1.02,-9.449 -1.02,-13.789 0,-4.343 0.26,-9.195 0.77,-14.05 0.51,-5.11 1.53,-9.45 3.57,-13.536 1.79,-4.086 4.34,-7.664 8.18,-10.218 3.57,-2.809 8.43,-4.086 14.55,-4.086 4.09,0 7.67,0.769 10.73,2.554 2.81,1.532 5.37,3.579 7.41,5.875 2.04,2.555 3.57,5.11 4.6,7.918 0.76,2.555 1.27,5.11 1.27,7.407 h 36.78 c 0,-2.297 -0.25,-5.11 -1.02,-8.684 -1.02,-3.828 -2.3,-7.406 -4.09,-11.492 -1.78,-3.832 -4.34,-7.918 -7.15,-12.004 -3.32,-4.086 -6.89,-7.664 -11.49,-10.727 -4.6,-3.324 -9.71,-5.875 -15.84,-7.922 -6.13,-2.042 -13.28,-3.062 -21.2,-3.062 -10.21,0 -19.41,1.531 -27.32,4.598 -7.92,3.32 -14.56,7.918 -19.93,14.047 -5.36,6.128 -9.45,13.535 -12.26,22.734 -2.804,8.937 -4.339,19.152 -4.339,30.648 0,11.746 1.535,21.965 4.599,30.903 3.06,8.683 7.41,16.347 13.03,22.476 5.61,6.129 12.25,10.727 20.17,13.793 7.66,3.321 16.6,4.852 26.05,4.852 4.09,0 8.43,-0.512 13.03,-1.02 4.34,-0.511 8.68,-1.789 13.03,-3.32 4.34,-1.789 8.43,-3.832 12.51,-6.387 3.83,-2.554 7.41,-5.875 10.73,-9.707 3.06,-3.832 5.62,-8.43 7.66,-13.535 2.04,-5.109 3.32,-11.238 3.83,-18.133 h -36.78 c -0.76,3.574 -1.53,6.895 -2.81,9.449"
         style="fill:#404c4f;fill-opacity:1;fill-rule:nonzero;stroke:none"
         transform="matrix(0.13333333,0,0,-0.13333333,0,65.653333)" />
      <path
         id="path8"
         d="m 1244.48,258.883 v -28.606 h -41.12 V 123.004 h -35.25 v 107.273 h -41.12 v 28.606 h 117.49"
         style="fill:#404c4f;fill-opacity:1;fill-rule:nonzero;stroke:none"
         transform="matrix(0.13333333,0,0,-0.13333333,0,65.653333)" />
      <path
         id="path9"
         d="m 1342.48,209.844 v 49.039 h 35.25 V 123.004 h -35.25 v 58.234 h -51.85 v -58.234 h -35.24 v 135.879 h 35.24 v -49.039 h 51.85"
         style="fill:#404c4f;fill-opacity:1;fill-rule:nonzero;stroke:none"
         transform="matrix(0.13333333,0,0,-0.13333333,0,65.653333)" />
      <path
         id="path10"
         d="m 1437.12,175.109 49.55,83.774 h 37.03 V 123.004 h -35.25 v 81.988 h -0.51 l -48.02,-81.988 h -38.56 v 135.879 h 35.24 v -83.774 h 0.52"
         style="fill:#404c4f;fill-opacity:1;fill-rule:nonzero;stroke:none"
         transform="matrix(0.13333333,0,0,-0.13333333,0,65.653333)" />
      <path
         id="path11"
         d="m 1633.86,258.883 h 47 l -56.19,-56.445 58.49,-79.434 h -45.98 l -39.84,57.469 -14.31,-14.559 v -42.91 h -35.24 v 135.879 h 35.24 v -51.59 l 50.83,51.59"
         style="fill:#404c4f;fill-opacity:1;fill-rule:nonzero;stroke:none"
         transform="matrix(0.13333333,0,0,-0.13333333,0,65.653333)" />
    </g>
  </g>
</svg>
